<svg version="1.1" xmlns="http://www.w3.org/2000/svg" viewBox="0 0 88.51517624183089 100.07195295732072" width="88.51517624183089" height="100.07195295732072">
  <!-- svg-source:excalidraw -->
  
  <defs>
    <style class="style-fonts">
      @font-face {
        font-family: "Virgil";
        src: url("https://excalidraw.com/Virgil.woff2");
      }
      @font-face {
        font-family: "Cascadia";
        src: url("https://excalidraw.com/Cascadia.woff2");
      }
      @font-face {
        font-family: "Assistant";
        src: url("https://excalidraw.com/Assistant-Regular.woff2");
      }
    </style>
    
  </defs>
  <g transform="translate(17.42935645995749 87.59550080400095) rotate(0 30.5429098909367 -37.97226635089373)" stroke="none"><path fill="#1e1e1e" d="M -1.56,0 Q -1.56,0 -1.52,-2.84 -1.49,-5.69 -1.46,-9.27 -1.44,-12.86 -1.42,-16.75 -1.40,-20.65 -1.39,-24.68 -1.38,-28.71 -1.37,-34.46 -1.36,-40.20 -1.11,-44.11 -0.87,-48.02 0.20,-51.94 1.28,-55.86 2.48,-58.51 3.67,-61.16 4.93,-63.05 6.20,-64.94 8.21,-66.99 10.23,-69.04 13.03,-71.12 15.84,-73.20 20.24,-74.86 24.64,-76.51 28.01,-76.97 31.38,-77.44 33.89,-77.13 36.40,-76.83 38.36,-75.69 40.33,-74.55 43.07,-71.60 45.82,-68.66 47.72,-65.69 49.61,-62.73 51.87,-56.64 54.13,-50.55 56.03,-43.69 57.93,-36.83 58.97,-32.24 60.01,-27.66 60.70,-23.31 61.38,-18.95 61.68,-15.65 61.97,-12.35 62.10,-10.24 62.23,-8.12 62.41,-6.99 62.59,-5.86 62.80,-3.86 63.02,-1.85 62.67,0.13 62.32,2.12 62.19,2.44 62.06,2.76 61.83,3.01 61.61,3.27 61.31,3.45 61.02,3.62 60.68,3.69 60.35,3.76 60.01,3.72 59.67,3.68 59.36,3.53 59.05,3.38 58.80,3.14 58.56,2.91 58.40,2.60 58.24,2.30 58.19,1.96 58.14,1.62 58.20,1.29 58.26,0.95 58.42,0.65 58.59,0.35 58.84,0.12 59.09,-0.11 59.40,-0.25 59.71,-0.39 60.05,-0.42 60.39,-0.45 60.73,-0.38 61.06,-0.30 61.35,-0.12 61.64,0.05 61.86,0.31 62.08,0.58 62.20,0.90 62.33,1.21 62.34,1.56 62.35,1.90 62.26,2.23 62.16,2.56 61.97,2.84 61.77,3.12 61.50,3.32 61.22,3.53 60.90,3.63 60.57,3.74 60.23,3.73 59.89,3.73 59.57,3.62 59.24,3.50 58.97,3.29 58.70,3.08 58.52,2.80 58.33,2.51 58.24,2.18 58.15,1.85 58.17,1.51 58.20,1.17 58.20,1.17 58.20,1.17 58.66,-0.33 59.12,-1.85 59.27,-3.78 59.42,-5.72 59.50,-6.84 59.57,-7.97 59.46,-10.04 59.34,-12.12 59.06,-15.33 58.77,-18.54 58.10,-22.81 57.43,-27.07 56.40,-31.59 55.36,-36.12 53.49,-42.87 51.62,-49.62 49.48,-55.46 47.34,-61.30 45.59,-64.06 43.83,-66.82 41.34,-69.54 38.84,-72.25 37.41,-73.25 35.97,-74.26 33.84,-74.54 31.71,-74.82 28.63,-74.43 25.54,-74.03 21.46,-72.55 17.38,-71.07 14.74,-69.12 12.10,-67.17 10.25,-65.31 8.39,-63.46 7.25,-61.76 6.10,-60.05 4.98,-57.59 3.86,-55.13 2.84,-51.49 1.82,-47.85 1.59,-44.02 1.36,-40.20 1.37,-34.46 1.38,-28.71 1.39,-24.68 1.40,-20.65 1.42,-16.75 1.44,-12.86 1.46,-9.27 1.49,-5.69 1.52,-2.84 1.56,0 1.53,0.18 1.51,0.37 1.45,0.54 1.38,0.72 1.27,0.88 1.16,1.03 1.02,1.16 0.88,1.28 0.72,1.37 0.55,1.46 0.37,1.50 0.18,1.55 -0.00,1.55 -0.18,1.55 -0.37,1.50 -0.55,1.46 -0.72,1.37 -0.88,1.28 -1.02,1.16 -1.16,1.03 -1.27,0.88 -1.38,0.72 -1.45,0.54 -1.51,0.37 -1.53,0.18 -1.56,-0.00 -1.56,-0.00 L -1.56,0 Z"></path></g><g transform="translate(10 87.59550080400095) rotate(0 28.066457737617384 0)" stroke="none"><path fill="#1e1e1e" d="M 0,-2.09 Q 0,-2.09 2.84,-1.99 5.69,-1.88 8.33,-1.81 10.96,-1.73 13.27,-1.67 15.57,-1.61 17.98,-1.57 20.38,-1.53 22.11,-1.58 23.85,-1.64 25.30,-1.71 26.75,-1.79 28.07,-1.87 29.40,-1.95 31.83,-2.06 34.26,-2.18 37.22,-2.07 40.19,-1.95 42.64,-1.87 45.08,-1.78 47.07,-1.75 49.06,-1.72 50.62,-1.78 52.17,-1.84 54.15,-1.90 56.13,-1.97 56.44,-1.92 56.76,-1.87 57.04,-1.72 57.32,-1.57 57.54,-1.34 57.76,-1.10 57.90,-0.81 58.03,-0.52 58.07,-0.21 58.10,0.10 58.03,0.41 57.96,0.73 57.80,1.00 57.63,1.28 57.39,1.48 57.15,1.69 56.85,1.81 56.55,1.93 56.23,1.94 55.91,1.96 55.61,1.88 55.30,1.79 55.03,1.61 54.77,1.43 54.57,1.18 54.38,0.92 54.28,0.62 54.18,0.31 54.18,-0.00 54.18,-0.32 54.28,-0.62 54.38,-0.92 54.57,-1.18 54.77,-1.43 55.03,-1.61 55.30,-1.79 55.61,-1.88 55.91,-1.96 56.23,-1.94 56.55,-1.93 56.85,-1.81 57.15,-1.69 57.39,-1.48 57.64,-1.27 57.80,-1.00 57.97,-0.73 58.03,-0.41 58.10,-0.10 58.07,0.21 58.03,0.52 57.90,0.81 57.76,1.11 57.54,1.34 57.32,1.57 57.04,1.72 56.76,1.87 56.44,1.92 56.13,1.97 56.13,1.97 56.13,1.97 54.15,1.90 52.17,1.84 50.62,1.78 49.06,1.72 47.07,1.75 45.08,1.78 42.64,1.87 40.19,1.95 37.22,2.07 34.26,2.18 31.83,2.06 29.40,1.95 28.07,1.87 26.75,1.79 25.30,1.71 23.85,1.64 22.11,1.58 20.38,1.53 17.98,1.57 15.57,1.61 13.27,1.67 10.96,1.73 8.33,1.81 5.69,1.88 2.84,1.99 0,2.09 -0.25,2.06 -0.50,2.03 -0.73,1.94 -0.97,1.85 -1.18,1.71 -1.38,1.56 -1.55,1.37 -1.72,1.19 -1.84,0.96 -1.95,0.74 -2.01,0.49 -2.08,0.25 -2.08,-0.00 -2.08,-0.25 -2.01,-0.49 -1.95,-0.74 -1.84,-0.96 -1.72,-1.19 -1.55,-1.37 -1.38,-1.56 -1.18,-1.71 -0.97,-1.85 -0.73,-1.94 -0.50,-2.03 -0.25,-2.06 0.00,-2.09 0.00,-2.09 L 0,-2.09 Z"></path></g><g transform="translate(71.0858197818734 85.11904865068209) rotate(0 0.00005000000010113581 0.00005000000010113581)" stroke="none"><path fill="#1e1e1e" d="M 1.57,-1.57 Q 1.57,-1.57 1.77,-1.27 1.98,-0.98 2.09,-0.64 2.20,-0.29 2.19,0.05 2.18,0.41 2.05,0.75 1.93,1.09 1.70,1.37 1.48,1.65 1.18,1.84 0.87,2.04 0.52,2.12 0.18,2.21 -0.17,2.18 -0.53,2.15 -0.86,2.01 -1.19,1.87 -1.46,1.63 -1.73,1.39 -1.90,1.07 -2.08,0.76 -2.15,0.41 -2.21,0.05 -2.17,-0.29 -2.12,-0.65 -1.96,-0.97 -1.80,-1.29 -1.54,-1.54 -1.29,-1.80 -0.97,-1.96 -0.65,-2.12 -0.29,-2.17 0.06,-2.21 0.41,-2.15 0.76,-2.08 1.07,-1.90 1.39,-1.73 1.63,-1.46 1.87,-1.19 2.01,-0.86 2.15,-0.53 2.18,-0.17 2.21,0.18 2.12,0.52 2.03,0.87 1.84,1.18 1.65,1.48 1.37,1.70 1.09,1.93 0.75,2.05 0.41,2.18 0.05,2.19 -0.30,2.20 -0.64,2.09 -0.98,1.98 -1.27,1.77 -1.57,1.56 -1.57,1.57 -1.57,1.57 -1.73,1.35 -1.90,1.14 -2.01,0.90 -2.12,0.66 -2.16,0.39 -2.21,0.13 -2.20,-0.13 -2.18,-0.40 -2.10,-0.65 -2.02,-0.91 -1.88,-1.14 -1.74,-1.36 -1.55,-1.55 -1.36,-1.74 -1.14,-1.88 -0.91,-2.02 -0.65,-2.10 -0.40,-2.18 -0.13,-2.20 0.13,-2.21 0.39,-2.16 0.66,-2.12 0.90,-2.01 1.14,-1.90 1.35,-1.73 1.57,-1.57 1.57,-1.57 L 1.57,-1.57 Z"></path></g><g stroke-opacity="0.3" fill-opacity="0.3" transform="translate(19.080324562170517 85.94453270178838) rotate(0 23.939037482085496 -26.8282316609575)" stroke="none"><path fill="#d0bfff" d="M -0.60,-10.01 Q -0.60,-10.01 11.30,-10.11 23.20,-10.20 29.05,-10.80 34.91,-11.39 35.59,-16.11 36.26,-20.82 34.70,-27.45 33.14,-34.08 31.25,-38.27 29.35,-42.47 24.84,-43.73 20.32,-45.00 20.40,-40.11 20.48,-35.21 19.06,-26.92 17.64,-18.64 17.50,-13.49 17.35,-8.34 11.80,-7.75 6.26,-7.16 9.66,-13.84 13.07,-20.52 16.92,-26.68 20.78,-32.83 22.92,-38.31 25.06,-43.78 25.15,-47.41 25.24,-51.05 25.57,-52.32 25.90,-53.60 26.53,-54.76 27.16,-55.92 28.05,-56.90 28.94,-57.87 30.03,-58.61 31.13,-59.34 32.37,-59.79 33.61,-60.25 34.92,-60.39 36.24,-60.53 37.54,-60.35 38.85,-60.18 40.08,-59.69 41.31,-59.21 42.38,-58.44 43.46,-57.68 44.32,-56.68 45.18,-55.68 45.78,-54.50 46.38,-53.33 46.68,-52.04 46.97,-50.75 46.96,-49.43 46.94,-48.12 44.63,-42.65 42.32,-37.19 40.84,-30.41 39.36,-23.62 39.41,-18.06 39.46,-12.50 39.15,-11.13 38.84,-9.77 38.22,-8.52 37.59,-7.27 36.68,-6.20 35.78,-5.14 34.64,-4.32 33.51,-3.51 32.21,-2.98 30.91,-2.46 29.53,-2.27 28.14,-2.07 26.75,-2.21 25.36,-2.36 24.04,-2.83 22.72,-3.30 21.56,-4.07 20.39,-4.84 19.44,-5.87 18.49,-6.90 17.82,-8.13 17.15,-9.35 16.79,-10.70 16.43,-12.05 16.40,-13.45 16.37,-14.85 18.42,-19.77 20.48,-24.69 21.68,-30.38 22.89,-36.08 27.01,-34.90 31.13,-33.73 31.04,-33.60 30.95,-33.48 29.77,-32.49 28.58,-31.50 27.19,-30.82 25.80,-30.14 24.29,-29.81 22.77,-29.48 21.23,-29.53 19.68,-29.57 18.19,-29.99 16.70,-30.40 15.35,-31.16 14.00,-31.92 12.87,-32.98 11.75,-34.04 10.90,-35.33 10.06,-36.63 9.56,-38.09 9.05,-39.56 8.91,-41.10 8.77,-42.64 9.00,-44.17 9.23,-45.70 9.82,-47.13 10.41,-48.56 11.32,-49.81 12.24,-51.05 15.54,-48.36 18.83,-45.67 21.79,-41.13 24.74,-36.59 23.76,-30.94 22.79,-25.29 22.71,-23.73 22.64,-22.18 22.14,-20.04 21.63,-17.90 20.47,-16.03 19.31,-14.16 17.61,-12.76 15.92,-11.36 13.86,-10.58 11.81,-9.79 9.61,-9.70 7.41,-9.62 5.30,-10.23 3.19,-10.85 1.39,-12.11 -0.40,-13.37 -1.71,-15.14 -3.02,-16.91 -3.69,-19.01 -4.36,-21.10 -4.33,-23.30 -4.30,-25.50 -3.57,-27.57 -2.83,-29.65 -1.48,-31.38 -0.12,-33.11 1.71,-34.32 3.54,-35.53 5.67,-36.09 7.80,-36.64 9.99,-36.49 12.19,-36.34 14.22,-35.50 16.25,-34.66 17.91,-33.21 19.56,-31.76 20.67,-29.86 21.78,-27.96 22.22,-25.80 22.66,-23.65 22.39,-21.47 22.12,-19.28 21.17,-17.30 20.22,-15.32 18.68,-13.74 17.15,-12.17 15.19,-11.17 13.23,-10.16 11.05,-9.84 8.88,-9.51 6.71,-9.90 4.55,-10.29 2.62,-11.35 0.69,-12.41 -0.79,-14.02 -2.28,-15.64 -3.17,-17.65 -4.07,-19.66 -4.27,-21.85 -4.48,-24.04 -4.48,-24.04 -4.48,-24.04 -4.09,-27.84 -3.71,-31.64 -2.12,-38.51 -0.53,-45.39 3.91,-54.12 8.36,-62.85 16.56,-66.48 24.76,-70.12 29.15,-68.67 33.55,-67.23 35.64,-63.53 37.74,-59.83 38.60,-55.25 39.47,-50.67 37.78,-46.35 36.09,-42.02 33.52,-37.75 30.95,-33.48 29.77,-32.49 28.58,-31.50 27.19,-30.82 25.80,-30.14 24.29,-29.81 22.78,-29.48 21.23,-29.53 19.68,-29.57 18.19,-29.99 16.70,-30.40 15.35,-31.16 14.00,-31.92 12.88,-32.98 11.75,-34.04 10.91,-35.33 10.06,-36.63 9.56,-38.09 9.05,-39.56 8.91,-41.10 8.77,-42.64 9.00,-44.17 9.23,-45.70 9.82,-47.13 10.41,-48.56 11.32,-49.80 12.24,-51.05 13.94,-52.65 15.64,-54.24 20.66,-56.57 25.68,-58.89 30.86,-58.16 36.03,-57.42 40.22,-53.23 44.41,-49.05 45.71,-43.71 47.01,-38.38 45.64,-31.25 44.27,-24.11 41.86,-18.31 39.46,-12.50 39.15,-11.14 38.84,-9.77 38.22,-8.52 37.59,-7.27 36.69,-6.20 35.78,-5.14 34.64,-4.32 33.51,-3.51 32.21,-2.98 30.91,-2.46 29.53,-2.27 28.14,-2.07 26.75,-2.21 25.36,-2.36 24.04,-2.83 22.72,-3.30 21.56,-4.07 20.39,-4.84 19.44,-5.87 18.50,-6.90 17.82,-8.12 17.15,-9.35 16.79,-10.70 16.43,-12.05 16.40,-13.45 16.37,-14.85 16.88,-20.82 17.38,-26.80 18.44,-33.43 19.49,-40.06 22.37,-45.55 25.24,-51.04 25.57,-52.32 25.90,-53.60 26.53,-54.76 27.16,-55.92 28.05,-56.90 28.94,-57.87 30.03,-58.61 31.13,-59.34 32.37,-59.79 33.61,-60.25 34.92,-60.39 36.23,-60.53 37.54,-60.35 38.85,-60.18 40.08,-59.69 41.31,-59.21 42.38,-58.44 43.46,-57.68 44.32,-56.68 45.18,-55.68 45.78,-54.50 46.38,-53.33 46.68,-52.04 46.97,-50.76 46.96,-49.44 46.94,-48.12 46.95,-48.82 46.96,-49.52 45.62,-43.20 44.28,-36.89 41.97,-29.93 39.65,-22.97 36.37,-15.51 33.10,-8.05 29.49,-1.75 25.89,4.54 18.65,8.76 11.42,12.98 3.77,9.03 -3.86,5.08 -4.81,-1.64 -5.77,-8.37 -5.90,-14.53 -6.03,-20.70 -4.70,-32.14 -3.37,-43.58 -1.86,-47.86 -0.35,-52.15 2.67,-58.28 5.71,-64.41 12.85,-67.36 19.99,-70.30 24.51,-69.60 29.04,-68.91 34.55,-66.03 40.07,-63.16 44.70,-58.34 49.34,-53.51 51.85,-46.23 54.36,-38.94 55.86,-29.48 57.35,-20.03 56.80,-14.61 56.25,-9.19 54.01,-4.62 51.77,-0.06 44.14,3.16 36.52,6.38 30.39,6.87 24.25,7.36 12.43,8.68 0.60,10.01 -0.60,9.94 -1.81,9.87 -2.96,9.50 -4.12,9.14 -5.15,8.52 -6.19,7.89 -7.04,7.04 -7.90,6.18 -8.52,5.14 -9.15,4.11 -9.51,2.95 -9.87,1.80 -9.94,0.59 -10.01,-0.61 -9.79,-1.80 -9.57,-2.99 -9.08,-4.09 -8.58,-5.19 -7.83,-6.14 -7.09,-7.10 -6.13,-7.84 -5.18,-8.59 -4.08,-9.08 -2.98,-9.58 -1.79,-9.80 -0.60,-10.01 -0.60,-10.01 L -0.60,-10.01 Z"></path></g><g stroke-opacity="0.3" fill-opacity="0.3" transform="translate(34.76452153319178 81.81711244625603) rotate(0 16.096938996574863 -20.224359252106296)" stroke="none"><path fill="#9775fa" d="M -10.50,0 Q -10.50,0 -10.57,-4.74 -10.63,-9.49 -10.27,-15.74 -9.91,-22.00 -8.42,-29.92 -6.92,-37.83 -1.43,-43.58 4.05,-49.32 10.31,-51.56 16.56,-53.80 21.25,-53.28 25.95,-52.76 31.26,-48.78 36.57,-44.80 39.93,-36.20 43.30,-27.61 42.80,-19.21 42.30,-10.82 39.90,-3.41 37.49,3.99 34.10,7.51 30.70,11.03 21.16,11.68 11.62,12.33 6.96,7.74 2.30,3.15 0.67,-4.23 -0.96,-11.61 -0.67,-19.98 -0.37,-28.35 2.91,-34.30 6.20,-40.25 15.36,-41.55 24.53,-42.84 29.92,-37.58 35.32,-32.31 36.61,-28.63 37.91,-24.95 38.12,-22.76 38.34,-20.57 37.84,-18.43 37.34,-16.28 36.19,-14.41 35.03,-12.54 33.34,-11.13 31.65,-9.72 29.59,-8.93 27.54,-8.14 25.34,-8.04 23.14,-7.95 21.03,-8.56 18.91,-9.17 17.10,-10.43 15.29,-11.68 13.98,-13.45 12.67,-15.22 11.99,-17.31 11.31,-19.40 11.33,-21.61 11.36,-23.81 12.08,-25.89 12.81,-27.96 14.16,-29.70 15.51,-31.44 17.35,-32.65 19.18,-33.87 21.31,-34.43 23.44,-35.00 25.64,-34.86 27.83,-34.71 29.87,-33.88 31.90,-33.04 33.57,-31.59 35.23,-30.15 36.34,-28.25 37.46,-26.35 37.90,-24.20 38.35,-22.04 38.09,-19.86 37.83,-17.67 36.88,-15.68 35.94,-13.70 34.40,-12.12 32.87,-10.53 30.92,-9.52 28.96,-8.52 26.78,-8.18 24.61,-7.85 22.44,-8.23 20.27,-8.61 18.34,-9.67 16.40,-10.72 14.91,-12.33 13.41,-13.95 12.51,-15.96 11.61,-17.96 11.61,-17.96 11.61,-17.96 12.94,-20.30 14.27,-22.63 19.42,-19.06 24.57,-15.48 20.30,-12.44 16.04,-9.40 17.46,-16.00 18.88,-22.61 16.24,-26.19 13.60,-29.77 12.23,-25.47 10.86,-21.18 10.75,-15.34 10.63,-9.49 10.57,-4.74 10.50,0 10.35,1.25 10.20,2.51 9.75,3.69 9.30,4.88 8.58,5.92 7.86,6.96 6.91,7.80 5.96,8.64 4.84,9.23 3.72,9.82 2.49,10.12 1.26,10.43 -0.00,10.43 -1.26,10.43 -2.49,10.12 -3.72,9.82 -4.84,9.23 -5.96,8.64 -6.91,7.80 -7.86,6.96 -8.58,5.92 -9.30,4.88 -9.75,3.69 -10.20,2.51 -10.35,1.25 -10.50,-0.00 -10.50,-0.00 L -10.50,0 Z"></path></g></svg>