<svg version="1.1" xmlns="http://www.w3.org/2000/svg" viewBox="0 0 332.0209336344169 203.4380365332936" width="332.0209336344169" height="203.4380365332936">
  <!-- svg-source:excalidraw -->
  
  <defs>
    <style class="style-fonts">
      @font-face {
        font-family: "Virgil";
        src: url("https://excalidraw.com/Virgil.woff2");
      }
      @font-face {
        font-family: "Cascadia";
        src: url("https://excalidraw.com/Cascadia.woff2");
      }
      @font-face {
        font-family: "Assistant";
        src: url("https://excalidraw.com/Assistant-Regular.woff2");
      }
    </style>
    
  </defs>
  <g transform="translate(78.96884626388237 193.4380365332936) rotate(0 3.9121856132694575 -24.777175550705124)" stroke="none"><path fill="#1e1e1e" d="M -1.86,-0.19 Q -1.86,-0.19 -1.03,-7.43 -0.21,-14.67 0.91,-21.04 2.04,-27.42 3.04,-32.37 4.04,-37.32 4.72,-40.91 5.40,-44.49 5.60,-46.04 5.79,-47.58 5.88,-47.83 5.97,-48.08 6.14,-48.29 6.30,-48.50 6.52,-48.64 6.74,-48.79 7.00,-48.86 7.26,-48.92 7.52,-48.90 7.79,-48.88 8.03,-48.78 8.28,-48.68 8.48,-48.50 8.68,-48.33 8.81,-48.10 8.94,-47.87 9.00,-47.61 9.05,-47.35 9.01,-47.08 8.98,-46.82 8.87,-46.58 8.75,-46.34 8.56,-46.15 8.38,-45.96 8.14,-45.84 7.90,-45.72 7.64,-45.69 7.38,-45.65 7.12,-45.69 6.86,-45.74 6.62,-45.87 6.39,-46.00 6.21,-46.20 6.03,-46.39 5.93,-46.63 5.82,-46.88 5.79,-47.14 5.77,-47.41 5.83,-47.66 5.89,-47.92 6.03,-48.15 6.18,-48.37 6.38,-48.54 6.59,-48.71 6.84,-48.80 7.08,-48.90 7.35,-48.91 7.61,-48.92 7.87,-48.84 8.12,-48.77 8.34,-48.61 8.56,-48.46 8.71,-48.25 8.87,-48.03 8.95,-47.78 9.03,-47.52 9.03,-47.26 9.02,-46.99 9.02,-46.99 9.02,-46.99 8.66,-45.48 8.30,-43.97 7.67,-40.35 7.04,-36.74 6.13,-31.81 5.22,-26.88 4.22,-20.60 3.21,-14.31 2.53,-7.06 1.86,0.19 1.81,0.41 1.76,0.63 1.66,0.83 1.56,1.03 1.41,1.20 1.26,1.38 1.08,1.51 0.90,1.64 0.69,1.72 0.48,1.81 0.25,1.84 0.03,1.87 -0.19,1.85 -0.41,1.82 -0.62,1.75 -0.84,1.67 -1.03,1.55 -1.21,1.42 -1.37,1.25 -1.52,1.09 -1.63,0.89 -1.74,0.69 -1.79,0.47 -1.85,0.25 -1.86,0.03 -1.86,-0.19 -1.86,-0.19 L -1.86,-0.19 Z"></path></g><g transform="translate(110.26633117003712 189.96053821038822) rotate(0 -2.1734364518163147 -24.77717555070558)" stroke="none"><path fill="#1e1e1e" d="M -1.92,0 Q -1.92,0 -1.93,-1.74 -1.93,-3.49 -1.85,-6.74 -1.76,-9.98 -2.20,-17.05 -2.64,-24.12 -3.05,-29.13 -3.47,-34.15 -3.88,-38.28 -4.29,-42.41 -4.98,-45.41 -5.66,-48.42 -5.71,-48.68 -5.77,-48.94 -5.74,-49.20 -5.70,-49.47 -5.59,-49.70 -5.48,-49.94 -5.29,-50.13 -5.11,-50.32 -4.88,-50.44 -4.64,-50.57 -4.38,-50.61 -4.12,-50.65 -3.86,-50.60 -3.60,-50.56 -3.37,-50.43 -3.13,-50.30 -2.95,-50.11 -2.77,-49.92 -2.66,-49.68 -2.56,-49.44 -2.53,-49.17 -2.50,-48.91 -2.56,-48.65 -2.62,-48.39 -2.76,-48.17 -2.90,-47.94 -3.10,-47.77 -3.31,-47.61 -3.55,-47.51 -3.80,-47.41 -4.06,-47.40 -4.33,-47.39 -4.58,-47.46 -4.83,-47.54 -5.05,-47.69 -5.27,-47.84 -5.43,-48.05 -5.59,-48.26 -5.67,-48.51 -5.75,-48.76 -5.75,-49.03 -5.74,-49.29 -5.66,-49.54 -5.57,-49.79 -5.41,-50.00 -5.25,-50.21 -5.03,-50.36 -4.81,-50.50 -4.55,-50.57 -4.29,-50.64 -4.03,-50.62 -3.77,-50.61 -3.52,-50.51 -3.28,-50.40 -3.08,-50.23 -2.88,-50.06 -2.74,-49.83 -2.61,-49.60 -2.61,-49.60 -2.61,-49.60 -1.97,-46.16 -1.33,-42.72 -0.85,-38.58 -0.37,-34.43 0.13,-29.39 0.64,-24.35 1.20,-17.17 1.76,-9.98 1.85,-6.74 1.93,-3.49 1.93,-1.74 1.92,0 1.89,0.23 1.87,0.46 1.78,0.67 1.70,0.89 1.57,1.08 1.44,1.27 1.26,1.43 1.09,1.58 0.88,1.69 0.68,1.80 0.45,1.85 0.23,1.91 -0.00,1.91 -0.23,1.91 -0.45,1.85 -0.68,1.80 -0.88,1.69 -1.09,1.58 -1.26,1.43 -1.44,1.27 -1.57,1.08 -1.70,0.89 -1.78,0.67 -1.87,0.46 -1.89,0.23 -1.92,-0.00 -1.92,-0.00 L -1.92,0 Z"></path></g><g transform="translate(87.66259207114763 94.3293343304731) rotate(0 6.520309355448944 19.56092806634615)" stroke="none"><path fill="#1e1e1e" d="M 1.51,0.65 Q 1.51,0.65 0.77,2.40 0.02,4.15 -1.37,6.46 -2.78,8.78 -4.09,11.41 -5.40,14.04 -6.72,16.91 -8.05,19.78 -9.11,22.22 -10.17,24.67 -10.33,28.99 -10.49,33.31 -10.09,35.86 -9.70,38.41 -8.83,40.38 -7.96,42.36 -6.87,43.57 -5.78,44.78 -3.74,45.99 -1.70,47.20 0.82,47.97 3.36,48.73 6.37,49.07 9.37,49.41 12.42,48.62 15.46,47.84 17.60,45.16 19.73,42.48 20.93,40.15 22.13,37.81 22.86,33.94 23.60,30.07 23.93,26.91 24.26,23.74 24.15,21.22 24.04,18.70 23.75,16.39 23.47,14.09 22.37,10.97 21.28,7.84 20.06,4.74 18.84,1.63 17.83,-0.67 16.82,-2.98 15.88,-4.65 14.94,-6.32 14.05,-7.10 13.17,-7.88 12.39,-8.82 11.62,-9.75 10.75,-9.14 9.88,-8.52 8.82,-7.99 7.76,-7.45 6.44,-6.25 5.12,-5.06 4.28,-4.16 3.45,-3.27 3.28,-2.32 3.10,-1.37 2.91,-1.00 2.73,-0.63 2.43,-0.34 2.14,-0.05 1.77,0.12 1.40,0.31 0.99,0.36 0.58,0.41 0.17,0.33 -0.22,0.25 -0.58,0.05 -0.94,-0.15 -1.21,-0.46 -1.48,-0.77 -1.65,-1.15 -1.81,-1.53 -1.84,-1.94 -1.87,-2.35 -1.77,-2.75 -1.66,-3.15 -1.44,-3.50 -1.22,-3.84 -0.89,-4.10 -0.57,-4.36 -0.18,-4.50 0.20,-4.64 0.61,-4.65 1.02,-4.66 1.42,-4.53 1.81,-4.41 2.15,-4.17 2.48,-3.92 2.72,-3.59 2.96,-3.25 3.08,-2.85 3.19,-2.46 3.18,-2.05 3.17,-1.63 3.02,-1.25 2.88,-0.86 2.62,-0.54 2.36,-0.22 2.01,-0.00 1.66,0.21 1.26,0.31 0.86,0.41 0.44,0.37 0.03,0.33 -0.34,0.17 -0.71,0.00 -1.02,-0.26 -1.32,-0.54 -1.53,-0.90 -1.73,-1.26 -1.80,-1.67 -1.88,-2.08 -1.82,-2.48 -1.76,-2.89 -1.76,-2.89 -1.76,-2.89 -0.46,-5.34 0.84,-7.78 2.21,-8.81 3.58,-9.84 4.79,-10.62 5.99,-11.40 7.18,-11.86 8.37,-12.32 10.35,-12.81 12.33,-13.30 13.95,-11.67 15.56,-10.05 16.46,-8.85 17.37,-7.65 18.30,-5.84 19.23,-4.03 20.26,-1.68 21.29,0.67 22.53,3.82 23.77,6.98 24.93,10.37 26.08,13.75 26.38,16.17 26.69,18.59 26.79,21.30 26.90,24.02 26.55,27.30 26.21,30.58 25.36,34.80 24.51,39.02 23.15,41.61 21.79,44.21 19.09,47.26 16.39,50.30 12.76,51.22 9.13,52.13 5.84,51.77 2.56,51.41 -0.30,50.53 -3.16,49.65 -5.59,48.16 -8.02,46.67 -9.22,45.06 -10.42,43.45 -11.40,41.15 -12.39,38.84 -12.82,36.02 -13.26,33.20 -13.02,28.41 -12.78,23.63 -11.73,21.11 -10.69,18.59 -9.39,15.66 -8.10,12.73 -6.79,9.96 -5.48,7.19 -4.25,5.01 -3.02,2.84 -2.27,1.09 -1.51,-0.65 -1.41,-0.82 -1.31,-0.99 -1.17,-1.13 -1.04,-1.28 -0.87,-1.38 -0.70,-1.49 -0.51,-1.55 -0.32,-1.61 -0.12,-1.63 0.07,-1.64 0.26,-1.61 0.46,-1.58 0.64,-1.50 0.82,-1.42 0.98,-1.30 1.14,-1.18 1.27,-1.03 1.39,-0.87 1.48,-0.69 1.56,-0.51 1.60,-0.32 1.64,-0.12 1.63,0.06 1.62,0.26 1.57,0.45 1.51,0.65 1.51,0.65 L 1.51,0.65 Z"></path></g><g transform="translate(88.53196665187443 49.12185613269412) rotate(0 17.387491614530063 4.3468729036326295)" stroke="none"><path fill="#1e1e1e" d="M 1.68,0.72 Q 1.68,0.72 0.91,2.46 0.15,4.20 -0.35,5.67 -0.87,7.14 -1.08,8.81 -1.29,10.48 -1.38,12.22 -1.47,13.95 -1.27,15.53 -1.07,17.11 -0.35,18.25 0.36,19.39 1.62,20.26 2.88,21.12 6.40,21.28 9.93,21.44 13.21,21.09 16.48,20.75 19.31,19.89 22.13,19.04 24.77,17.73 27.42,16.41 29.93,13.96 32.44,11.51 33.71,9.34 34.99,7.17 35.25,3.72 35.52,0.26 33.97,-3.53 32.42,-7.34 30.85,-9.15 29.29,-10.96 27.72,-11.91 26.15,-12.86 24.60,-13.18 23.04,-13.50 21.78,-13.34 20.52,-13.18 19.13,-12.66 17.74,-12.14 16.53,-11.25 15.31,-10.37 12.51,-7.84 9.71,-5.31 8.01,-3.51 6.31,-1.71 5.39,-0.60 4.47,0.50 2.01,1.35 -0.44,2.20 -0.64,1.96 -0.83,1.71 -0.94,1.42 -1.05,1.12 -1.06,0.81 -1.07,0.50 -0.97,0.20 -0.88,-0.09 -0.70,-0.35 -0.51,-0.60 -0.26,-0.79 -0.00,-0.97 0.29,-1.06 0.59,-1.15 0.90,-1.14 1.21,-1.13 1.51,-1.02 1.80,-0.91 2.05,-0.72 2.29,-0.52 2.46,-0.26 2.63,0.00 2.70,0.30 2.78,0.61 2.75,0.92 2.73,1.23 2.60,1.52 2.48,1.81 2.27,2.04 2.06,2.27 1.78,2.43 1.51,2.58 1.20,2.64 0.89,2.70 0.58,2.66 0.27,2.61 -0.00,2.47 -0.28,2.33 -0.50,2.11 -0.72,1.89 -0.86,1.61 -1.00,1.33 -1.04,1.01 -1.08,0.70 -1.02,0.40 -0.96,0.09 -0.81,-0.17 -0.65,-0.45 -0.42,-0.66 -0.19,-0.86 0.09,-0.99 0.38,-1.11 0.69,-1.14 1.01,-1.16 1.31,-1.08 1.62,-1.01 1.88,-0.84 2.14,-0.67 2.14,-0.67 2.14,-0.67 2.02,-1.27 1.90,-1.87 2.94,-2.85 3.98,-3.84 5.70,-5.80 7.43,-7.77 10.36,-10.56 13.29,-13.36 14.96,-14.42 16.63,-15.47 18.50,-16.00 20.37,-16.53 22.08,-16.47 23.79,-16.41 25.69,-15.80 27.60,-15.19 29.45,-13.95 31.31,-12.71 33.11,-10.54 34.91,-8.37 36.57,-3.99 38.23,0.38 37.82,4.42 37.41,8.47 35.92,11.00 34.43,13.53 31.59,16.26 28.76,18.99 25.90,20.46 23.03,21.92 19.95,22.91 16.86,23.89 13.30,24.35 9.74,24.81 5.40,24.50 1.06,24.19 -0.89,22.78 -2.84,21.37 -3.79,19.51 -4.74,17.65 -4.96,15.70 -5.17,13.75 -5.06,11.88 -4.94,10.02 -4.67,7.92 -4.40,5.82 -3.77,4.30 -3.15,2.79 -2.41,1.03 -1.68,-0.72 -1.57,-0.91 -1.46,-1.10 -1.30,-1.26 -1.15,-1.42 -0.96,-1.53 -0.78,-1.65 -0.57,-1.72 -0.36,-1.79 -0.14,-1.81 0.07,-1.82 0.29,-1.79 0.51,-1.75 0.71,-1.66 0.91,-1.58 1.09,-1.45 1.27,-1.31 1.40,-1.14 1.54,-0.97 1.64,-0.77 1.73,-0.57 1.78,-0.35 1.82,-0.14 1.81,0.07 1.80,0.29 1.74,0.50 1.68,0.72 1.68,0.72 L 1.68,0.72 Z"></path></g><g transform="translate(108.52758200858352 48.2524815519655) rotate(0 0.00005000000010113581 0.00005000000010113581)" stroke="none"><path fill="#1e1e1e" d="M 1.57,-1.57 Q 1.57,-1.57 1.77,-1.27 1.98,-0.98 2.09,-0.64 2.20,-0.29 2.19,0.05 2.18,0.41 2.05,0.75 1.93,1.09 1.70,1.37 1.48,1.65 1.18,1.84 0.87,2.04 0.52,2.12 0.18,2.21 -0.17,2.18 -0.53,2.15 -0.86,2.01 -1.19,1.87 -1.46,1.63 -1.73,1.39 -1.90,1.07 -2.08,0.76 -2.15,0.41 -2.21,0.05 -2.17,-0.29 -2.12,-0.65 -1.96,-0.97 -1.80,-1.29 -1.54,-1.54 -1.29,-1.80 -0.97,-1.96 -0.65,-2.12 -0.29,-2.17 0.06,-2.21 0.41,-2.15 0.76,-2.08 1.07,-1.90 1.39,-1.73 1.63,-1.46 1.87,-1.19 2.01,-0.86 2.15,-0.53 2.18,-0.17 2.21,0.18 2.12,0.52 2.03,0.87 1.84,1.18 1.65,1.48 1.37,1.70 1.09,1.93 0.75,2.05 0.41,2.18 0.05,2.19 -0.30,2.20 -0.64,2.09 -0.98,1.98 -1.27,1.77 -1.57,1.56 -1.57,1.57 -1.57,1.57 -1.73,1.35 -1.90,1.14 -2.01,0.90 -2.12,0.66 -2.16,0.39 -2.21,0.13 -2.20,-0.13 -2.18,-0.40 -2.10,-0.65 -2.02,-0.91 -1.88,-1.14 -1.74,-1.36 -1.55,-1.55 -1.36,-1.74 -1.14,-1.88 -0.91,-2.02 -0.65,-2.10 -0.40,-2.18 -0.13,-2.20 0.13,-2.21 0.39,-2.16 0.66,-2.12 0.90,-2.01 1.14,-1.90 1.35,-1.73 1.57,-1.57 1.57,-1.57 L 1.57,-1.57 Z"></path></g><g transform="translate(119.82945155802827 48.2524815519655) rotate(0 0.00005000000010113581 0.00005000000010113581)" stroke="none"><path fill="#1e1e1e" d="M 1.57,-1.57 Q 1.57,-1.57 1.77,-1.27 1.98,-0.98 2.09,-0.64 2.20,-0.29 2.19,0.05 2.18,0.41 2.05,0.75 1.93,1.09 1.70,1.37 1.48,1.65 1.18,1.84 0.87,2.04 0.52,2.12 0.18,2.21 -0.17,2.18 -0.53,2.15 -0.86,2.01 -1.19,1.87 -1.46,1.63 -1.73,1.39 -1.90,1.07 -2.08,0.76 -2.15,0.41 -2.21,0.05 -2.17,-0.29 -2.12,-0.65 -1.96,-0.97 -1.80,-1.29 -1.54,-1.54 -1.29,-1.80 -0.97,-1.96 -0.65,-2.12 -0.29,-2.17 0.06,-2.21 0.41,-2.15 0.76,-2.08 1.07,-1.90 1.39,-1.73 1.63,-1.46 1.87,-1.19 2.01,-0.86 2.15,-0.53 2.18,-0.17 2.21,0.18 2.12,0.52 2.03,0.87 1.84,1.18 1.65,1.48 1.37,1.70 1.09,1.93 0.75,2.05 0.41,2.18 0.05,2.19 -0.30,2.20 -0.64,2.09 -0.98,1.98 -1.27,1.77 -1.57,1.56 -1.57,1.57 -1.57,1.57 -1.73,1.35 -1.90,1.14 -2.01,0.90 -2.12,0.66 -2.16,0.39 -2.21,0.13 -2.20,-0.13 -2.18,-0.40 -2.10,-0.65 -2.02,-0.91 -1.88,-1.14 -1.74,-1.36 -1.55,-1.55 -1.36,-1.74 -1.14,-1.88 -0.91,-2.02 -0.65,-2.10 -0.40,-2.18 -0.13,-2.20 0.13,-2.21 0.39,-2.16 0.66,-2.12 0.90,-2.01 1.14,-1.90 1.35,-1.73 1.57,-1.57 1.57,-1.57 L 1.57,-1.57 Z"></path></g><g transform="translate(96.35633787841289 96.93745807265168) rotate(0 14.344680581987404 -15.648742453077375)" stroke="none"><path fill="#1e1e1e" d="M 0,-1.74 Q 0,-1.74 2.24,-1.68 4.49,-1.62 7.89,-1.83 11.29,-2.03 13.44,-2.35 15.58,-2.66 17.04,-3.51 18.50,-4.35 19.51,-5.41 20.52,-6.46 21.08,-7.75 21.64,-9.04 22.18,-10.77 22.72,-12.50 23.25,-14.49 23.77,-16.47 24.27,-18.57 24.77,-20.66 25.20,-22.57 25.64,-24.49 26.03,-26.10 26.41,-27.71 26.58,-29.28 26.74,-30.86 26.84,-31.14 26.93,-31.42 27.11,-31.66 27.29,-31.90 27.54,-32.07 27.79,-32.24 28.07,-32.32 28.36,-32.40 28.66,-32.38 28.96,-32.37 29.24,-32.26 29.51,-32.15 29.74,-31.95 29.97,-31.76 30.13,-31.51 30.28,-31.25 30.35,-30.96 30.41,-30.67 30.38,-30.37 30.35,-30.07 30.22,-29.80 30.10,-29.53 29.89,-29.31 29.69,-29.10 29.43,-28.96 29.16,-28.81 28.87,-28.77 28.57,-28.72 28.28,-28.76 27.98,-28.81 27.72,-28.95 27.45,-29.09 27.25,-29.31 27.04,-29.52 26.92,-29.79 26.79,-30.06 26.76,-30.36 26.72,-30.66 26.79,-30.95 26.85,-31.24 27.00,-31.50 27.16,-31.75 27.38,-31.95 27.61,-32.14 27.89,-32.25 28.16,-32.36 28.46,-32.38 28.76,-32.40 29.05,-32.32 29.34,-32.24 29.59,-32.07 29.83,-31.91 30.01,-31.67 30.20,-31.43 30.29,-31.15 30.39,-30.87 30.39,-30.57 30.39,-30.27 30.39,-30.27 30.39,-30.27 30.03,-28.53 29.66,-26.79 29.17,-25.29 28.67,-23.78 28.22,-21.89 27.76,-20.01 27.34,-17.86 26.91,-15.71 26.45,-13.60 25.99,-11.49 25.38,-9.46 24.76,-7.43 23.79,-5.76 22.81,-4.09 21.39,-2.88 19.96,-1.67 18.03,-0.71 16.10,0.24 13.81,0.63 11.52,1.03 8.01,1.33 4.49,1.62 2.24,1.68 0,1.74 -0.20,1.71 -0.41,1.69 -0.61,1.61 -0.81,1.54 -0.98,1.42 -1.15,1.30 -1.29,1.14 -1.43,0.99 -1.53,0.80 -1.63,0.61 -1.68,0.41 -1.73,0.21 -1.73,-0.00 -1.73,-0.21 -1.68,-0.41 -1.63,-0.61 -1.53,-0.80 -1.43,-0.99 -1.29,-1.14 -1.15,-1.30 -0.98,-1.42 -0.81,-1.54 -0.61,-1.62 -0.41,-1.69 -0.20,-1.71 0.00,-1.74 0.00,-1.74 L 0,-1.74 Z"></path></g><g transform="translate(106.78883284713083 106.50057846064283) rotate(0 20.43030264707295 -19.560928066346605)" stroke="none"><path fill="#1e1e1e" d="M 0,-1.58 Q 0,-1.58 1.99,-1.58 3.99,-1.57 6.34,-1.53 8.69,-1.50 11.63,-1.72 14.57,-1.94 17.88,-2.03 21.19,-2.12 23.96,-2.64 26.74,-3.15 29.50,-4.79 32.27,-6.42 34.36,-9.00 36.46,-11.58 37.32,-13.81 38.19,-16.05 38.55,-17.96 38.92,-19.87 38.99,-21.43 39.07,-22.99 39.05,-24.39 39.03,-25.78 38.96,-26.88 38.90,-27.97 38.77,-30.08 38.64,-32.18 37.78,-35.21 36.91,-38.23 36.88,-38.61 36.85,-38.99 36.94,-39.36 37.03,-39.73 37.23,-40.05 37.44,-40.37 37.73,-40.61 38.03,-40.85 38.39,-40.98 38.74,-41.12 39.13,-41.13 39.51,-41.14 39.87,-41.03 40.24,-40.92 40.55,-40.70 40.86,-40.48 41.08,-40.17 41.30,-39.86 41.41,-39.49 41.53,-39.13 41.52,-38.75 41.51,-38.37 41.38,-38.01 41.25,-37.65 41.01,-37.35 40.77,-37.06 40.45,-36.85 40.13,-36.64 39.76,-36.55 39.39,-36.46 39.01,-36.49 38.63,-36.52 38.28,-36.67 37.93,-36.82 37.65,-37.07 37.36,-37.32 37.18,-37.65 36.99,-37.99 36.91,-38.36 36.84,-38.73 36.89,-39.11 36.94,-39.49 37.11,-39.83 37.28,-40.17 37.55,-40.44 37.82,-40.71 38.16,-40.88 38.50,-41.05 38.88,-41.11 39.25,-41.16 39.63,-41.09 40.00,-41.02 40.33,-40.83 40.67,-40.64 40.92,-40.36 41.18,-40.08 41.33,-39.73 41.48,-39.38 41.48,-39.38 41.48,-39.38 42.04,-37.25 42.60,-35.12 42.83,-33.65 43.05,-32.18 42.89,-30.02 42.72,-27.86 42.59,-26.73 42.47,-25.61 42.30,-24.13 42.13,-22.66 41.86,-21.00 41.59,-19.34 41.13,-17.20 40.68,-15.06 39.62,-12.47 38.56,-9.89 36.12,-6.99 33.68,-4.10 30.49,-2.27 27.30,-0.44 24.29,0.12 21.29,0.70 18.05,0.82 14.81,0.94 11.75,1.22 8.69,1.50 6.34,1.53 3.99,1.57 1.99,1.58 0,1.58 -0.19,1.56 -0.38,1.54 -0.55,1.47 -0.73,1.40 -0.89,1.29 -1.05,1.18 -1.18,1.04 -1.30,0.90 -1.39,0.73 -1.48,0.56 -1.53,0.37 -1.57,0.19 -1.57,-0.00 -1.57,-0.19 -1.53,-0.37 -1.48,-0.56 -1.39,-0.73 -1.30,-0.90 -1.18,-1.04 -1.05,-1.18 -0.89,-1.29 -0.73,-1.40 -0.55,-1.47 -0.37,-1.54 -0.18,-1.56 0.00,-1.58 0.00,-1.58 L 0,-1.58 Z"></path></g><g stroke-linecap="round" transform="translate(155.4738093678161 52.599354455599496) rotate(0 5.2162474843589735 5.2162474843589735)"><path d="M5.17 -0.16 C6.16 -0.19, 7.63 0.29, 8.44 1 C9.25 1.72, 9.88 2.97, 10.02 4.12 C10.16 5.26, 9.87 6.92, 9.3 7.88 C8.72 8.83, 7.61 9.56, 6.56 9.84 C5.51 10.12, 4.05 9.97, 2.99 9.56 C1.93 9.15, 0.6 8.34, 0.2 7.37 C-0.19 6.41, 0.31 4.8, 0.61 3.75 C0.92 2.69, 1.15 1.65, 2.02 1.04 C2.89 0.44, 5.2 0.34, 5.84 0.13 C6.49 -0.09, 5.87 -0.39, 5.87 -0.25 M4.41 -0.35 C5.4 -0.74, 7.16 -0.67, 7.98 -0.09 C8.81 0.49, 8.9 1.96, 9.39 3.12 C9.87 4.28, 11.19 5.76, 10.88 6.88 C10.58 7.99, 8.64 9.11, 7.54 9.81 C6.44 10.51, 5.38 11.35, 4.26 11.09 C3.14 10.83, 1.42 9.26, 0.8 8.27 C0.19 7.29, 0.46 6.35, 0.55 5.19 C0.63 4.03, 0.64 2.13, 1.31 1.31 C1.98 0.49, 4.17 0.51, 4.58 0.27 C4.99 0.04, 3.75 -0.13, 3.76 -0.08" stroke="#1e1e1e" stroke-width="1" fill="none"></path></g><g stroke-linecap="round" transform="translate(166.77567891726085 43.90560864833333) rotate(0 5.2162474843589735 5.2162474843589735)"><path d="M4.15 -0.33 C5.18 -0.6, 6.64 -0.29, 7.6 0.34 C8.55 0.97, 9.49 2.35, 9.87 3.42 C10.24 4.5, 10.26 5.81, 9.86 6.79 C9.46 7.78, 8.49 8.79, 7.48 9.34 C6.46 9.89, 4.76 10.3, 3.78 10.1 C2.8 9.89, 2.24 8.97, 1.6 8.13 C0.96 7.28, -0.03 6.08, -0.04 5.03 C-0.05 3.99, 0.72 2.75, 1.52 1.85 C2.32 0.95, 4.16 -0.15, 4.78 -0.36 C5.41 -0.58, 5.33 0.35, 5.26 0.56 M5.45 -0.72 C6.35 -0.75, 6.91 0.18, 7.85 1.01 C8.78 1.84, 10.81 3.12, 11.06 4.27 C11.31 5.42, 10.05 6.84, 9.35 7.93 C8.65 9.02, 7.92 10.51, 6.86 10.81 C5.8 11.11, 3.9 10.25, 2.97 9.73 C2.04 9.21, 1.73 8.7, 1.27 7.7 C0.82 6.69, 0.09 4.75, 0.25 3.7 C0.41 2.66, 1.48 2.09, 2.23 1.42 C2.98 0.76, 4.19 -0.06, 4.74 -0.29 C5.29 -0.52, 5.48 -0.12, 5.53 0.04" stroke="#1e1e1e" stroke-width="1" fill="none"></path></g><g stroke-linecap="round"><g transform="translate(158.95130769072148 62.162474843590644) rotate(0 -19.560928066346378 -3.042811032542886)"><path d="M-0.31 -0.33 C-6.88 -1.43, -32.77 -5.41, -39.31 -6.44 M0.52 0.7 C-6.14 -0.36, -33.34 -4.78, -39.83 -5.92" stroke="#1e1e1e" stroke-width="1" fill="none"></path></g></g><mask></mask><g stroke-linecap="round"><g transform="translate(161.14889411521108 54.02025633926405) rotate(0 -19.560928066346378 -3.042811032542886)"><path d="M-0.19 -0.35 C-6.72 -1.38, -32.98 -5.48, -39.55 -6.49 M0.72 0.66 C-5.62 -0.28, -31.99 -4.89, -38.53 -6" stroke="#1e1e1e" stroke-width="1" fill="none"></path></g></g><mask></mask><g stroke-linecap="round"><g transform="translate(169.53103084361646 52.351868299444504) rotate(0 -19.560928066346378 -3.042811032542886)"><path d="M-0.43 -0.41 C-7 -1.42, -33.13 -5.44, -39.61 -6.42 M0.36 0.57 C-6.03 -0.34, -31.94 -4.83, -38.63 -5.89" stroke="#1e1e1e" stroke-width="1" fill="none"></path></g></g><mask></mask><g stroke-linecap="round"><g transform="translate(172.13915458579595 45.39687165363375) rotate(0 -19.560928066346378 -3.042811032542886)"><path d="M-0.49 -0.34 C-6.97 -1.32, -32.8 -5.31, -39.3 -6.31 M0.26 0.68 C-6.27 -0.19, -33.38 -4.64, -39.83 -5.72" stroke="#1e1e1e" stroke-width="1" fill="none"></path></g></g><mask></mask><g transform="translate(120.69882613875507 56.94622735923167) rotate(0 3.91218561326923 -5.650934774722373)" stroke="none"><path fill="#1e1e1e" d="M -2.48,0 Q -2.48,0 -2.46,-1.54 -2.44,-3.09 -1.52,-5.17 -0.60,-7.26 0.35,-8.50 1.32,-9.73 4.16,-11.73 7.01,-13.73 7.42,-13.75 7.83,-13.77 8.23,-13.66 8.63,-13.55 8.97,-13.31 9.31,-13.08 9.55,-12.75 9.80,-12.42 9.93,-12.02 10.06,-11.63 10.06,-11.22 10.05,-10.81 9.92,-10.42 9.79,-10.03 9.53,-9.70 9.28,-9.37 8.94,-9.14 8.59,-8.91 8.20,-8.80 7.80,-8.70 7.38,-8.72 6.97,-8.75 6.59,-8.90 6.21,-9.06 5.89,-9.33 5.58,-9.60 5.37,-9.95 5.16,-10.31 5.07,-10.71 4.99,-11.12 5.04,-11.53 5.08,-11.94 5.26,-12.31 5.44,-12.68 5.72,-12.98 6.01,-13.28 6.37,-13.47 6.74,-13.66 7.15,-13.73 7.56,-13.79 7.96,-13.72 8.37,-13.65 8.73,-13.45 9.10,-13.26 9.38,-12.96 9.66,-12.65 9.83,-12.28 10.00,-11.90 10.05,-11.49 10.09,-11.08 10.00,-10.68 9.90,-10.27 9.69,-9.92 9.47,-9.57 9.16,-9.31 8.84,-9.04 8.45,-8.89 8.07,-8.74 8.07,-8.74 8.07,-8.74 7.12,-8.25 6.17,-7.77 4.89,-6.52 3.60,-5.27 3.02,-4.09 2.44,-2.90 2.46,-1.45 2.48,0 2.45,0.29 2.41,0.59 2.30,0.87 2.20,1.15 2.03,1.40 1.86,1.64 1.63,1.84 1.41,2.04 1.14,2.18 0.88,2.32 0.59,2.39 0.29,2.46 -0.00,2.46 -0.29,2.46 -0.59,2.39 -0.88,2.32 -1.14,2.18 -1.41,2.04 -1.63,1.84 -1.86,1.64 -2.03,1.40 -2.20,1.15 -2.30,0.87 -2.41,0.59 -2.45,0.29 -2.48,-0.00 -2.48,-0.00 L -2.48,0 Z"></path></g><g transform="translate(132.8700702689266 39.55873574470115) rotate(0 -3.477498322906058 2.173436451816542)" stroke="none"><path fill="#1e1e1e" d="M 1.26,1.89 Q 1.26,1.89 -0.25,2.86 -1.78,3.82 -3.42,4.86 -5.06,5.91 -5.40,6.04 -5.75,6.18 -6.13,6.20 -6.50,6.21 -6.86,6.11 -7.22,6.01 -7.53,5.80 -7.84,5.59 -8.06,5.29 -8.28,4.99 -8.40,4.63 -8.52,4.28 -8.52,3.90 -8.51,3.53 -8.39,3.18 -8.27,2.82 -8.04,2.53 -7.81,2.23 -7.50,2.02 -7.19,1.81 -6.83,1.72 -6.47,1.62 -6.10,1.64 -5.72,1.66 -5.38,1.80 -5.03,1.94 -4.75,2.19 -4.46,2.43 -4.27,2.75 -4.08,3.08 -4.00,3.44 -3.93,3.81 -3.97,4.18 -4.01,4.55 -4.17,4.89 -4.33,5.23 -4.59,5.50 -4.85,5.77 -5.18,5.94 -5.51,6.11 -5.88,6.17 -6.25,6.23 -6.62,6.17 -6.99,6.10 -7.32,5.93 -7.65,5.75 -7.90,5.48 -8.16,5.20 -8.31,4.86 -8.47,4.52 -8.51,4.15 -8.54,3.78 -8.46,3.41 -8.38,3.05 -8.18,2.73 -7.99,2.41 -7.70,2.17 -7.41,1.93 -7.42,1.93 -7.42,1.93 -5.81,1.05 -4.21,0.17 -2.73,-0.86 -1.26,-1.89 -1.02,-2.02 -0.77,-2.14 -0.50,-2.20 -0.23,-2.26 0.03,-2.26 0.31,-2.26 0.57,-2.19 0.84,-2.12 1.08,-1.98 1.32,-1.85 1.52,-1.67 1.73,-1.48 1.88,-1.25 2.03,-1.02 2.13,-0.76 2.22,-0.51 2.25,-0.23 2.28,0.03 2.24,0.30 2.20,0.58 2.10,0.83 2.00,1.09 1.84,1.31 1.68,1.54 1.47,1.71 1.26,1.89 1.26,1.89 L 1.26,1.89 Z"></path></g><g transform="translate(84.18509374824225 51.7299798748727) rotate(0 7.389683936175061 -7.389683936175061)" stroke="none"><path fill="#1e1e1e" d="M 0.91,1.57 Q 0.91,1.57 -2.11,3.26 -5.14,4.95 -8.20,6.65 -11.25,8.35 -14.13,9.60 -17.00,10.84 -18.97,10.98 -20.94,11.11 -21.82,9.85 -22.70,8.59 -22.24,6.66 -21.77,4.73 -18.80,1.43 -15.83,-1.87 -12.79,-4.46 -9.76,-7.04 -7.26,-9.32 -4.76,-11.61 -0.63,-14.86 3.49,-18.12 8.36,-20.56 13.22,-22.99 16.55,-24.27 19.88,-25.54 22.38,-26.09 24.88,-26.64 27.61,-26.37 30.33,-26.10 32.01,-25.81 33.68,-25.51 35.80,-23.61 37.92,-21.71 37.98,-21.46 38.03,-21.20 38.00,-20.94 37.97,-20.68 37.85,-20.44 37.74,-20.20 37.56,-20.01 37.37,-19.82 37.14,-19.70 36.91,-19.58 36.65,-19.54 36.39,-19.50 36.13,-19.55 35.87,-19.59 35.64,-19.72 35.41,-19.85 35.23,-20.04 35.05,-20.23 34.94,-20.47 34.83,-20.71 34.81,-20.97 34.78,-21.24 34.84,-21.49 34.90,-21.75 35.04,-21.97 35.18,-22.20 35.38,-22.37 35.58,-22.53 35.83,-22.63 36.07,-22.72 36.34,-22.73 36.60,-22.75 36.85,-22.67 37.10,-22.60 37.32,-22.45 37.54,-22.30 37.69,-22.09 37.85,-21.88 37.93,-21.62 38.01,-21.37 38.01,-21.11 38.01,-20.85 37.92,-20.60 37.83,-20.35 37.67,-20.14 37.51,-19.94 37.29,-19.79 37.07,-19.65 36.82,-19.58 36.56,-19.51 36.30,-19.53 36.04,-19.54 35.79,-19.65 35.55,-19.75 35.35,-19.92 35.15,-20.09 35.02,-20.32 34.89,-20.55 34.89,-20.54 34.89,-20.54 33.93,-21.52 32.97,-22.50 31.50,-22.94 30.04,-23.38 27.74,-23.65 25.44,-23.93 23.17,-23.41 20.90,-22.89 17.72,-21.64 14.53,-20.39 9.95,-18.07 5.37,-15.75 1.39,-12.52 -2.58,-9.29 -5.05,-6.90 -7.52,-4.50 -10.31,-1.97 -13.09,0.55 -15.66,4.32 -18.22,8.08 -15.53,6.84 -12.83,5.61 -9.84,3.82 -6.84,2.04 -3.88,0.23 -0.91,-1.57 -0.71,-1.66 -0.51,-1.74 -0.29,-1.78 -0.08,-1.82 0.13,-1.80 0.35,-1.78 0.56,-1.71 0.77,-1.65 0.96,-1.53 1.14,-1.41 1.29,-1.25 1.45,-1.10 1.56,-0.91 1.67,-0.72 1.73,-0.51 1.79,-0.30 1.80,-0.08 1.81,0.13 1.77,0.35 1.73,0.56 1.63,0.76 1.54,0.96 1.40,1.13 1.26,1.30 1.09,1.44 0.91,1.57 0.91,1.57 L 0.91,1.57 Z"></path></g><g transform="translate(79.83822084460917 40.42811032542795) rotate(0 16.95280432416689 -15.214055162713976)" stroke="none"><path fill="#1e1e1e" d="M -1.83,0 Q -1.83,0 -1.89,-1.49 -1.94,-2.99 -1.96,-4.63 -1.98,-6.27 -1.99,-7.96 -2.00,-9.66 -2.00,-11.38 -2.00,-13.10 -1.91,-15.34 -1.81,-17.58 -1.28,-19.56 -0.74,-21.53 0.66,-23.31 2.07,-25.09 5.64,-26.87 9.20,-28.65 11.95,-29.59 14.70,-30.52 18.25,-30.92 21.79,-31.33 23.97,-31.21 26.15,-31.10 28.08,-29.38 30.01,-27.66 31.26,-25.91 32.52,-24.15 33.66,-22.33 34.80,-20.51 34.94,-20.30 35.08,-20.08 35.14,-19.83 35.20,-19.58 35.18,-19.32 35.16,-19.06 35.06,-18.82 34.96,-18.58 34.79,-18.39 34.62,-18.20 34.39,-18.07 34.17,-17.94 33.91,-17.89 33.66,-17.84 33.40,-17.88 33.15,-17.91 32.91,-18.03 32.68,-18.14 32.50,-18.32 32.31,-18.51 32.20,-18.74 32.08,-18.97 32.05,-19.22 32.01,-19.48 32.06,-19.74 32.11,-19.99 32.24,-20.22 32.36,-20.44 32.55,-20.61 32.75,-20.79 32.98,-20.89 33.22,-20.99 33.48,-21.01 33.74,-21.04 33.99,-20.97 34.24,-20.91 34.46,-20.77 34.68,-20.64 34.84,-20.43 35.00,-20.23 35.09,-19.99 35.18,-19.75 35.19,-19.49 35.20,-19.23 35.12,-18.98 35.05,-18.74 34.90,-18.52 34.74,-18.31 34.54,-18.16 34.33,-18.01 34.08,-17.93 33.83,-17.86 33.57,-17.86 33.31,-17.87 33.07,-17.96 32.83,-18.05 32.63,-18.21 32.42,-18.37 32.42,-18.37 32.42,-18.37 31.26,-20.41 30.09,-22.45 29.01,-24.00 27.93,-25.55 26.72,-26.90 25.50,-28.24 23.82,-28.29 22.14,-28.34 18.94,-27.94 15.74,-27.54 13.22,-26.60 10.69,-25.65 7.73,-24.18 4.76,-22.71 3.75,-21.55 2.74,-20.38 2.28,-18.96 1.81,-17.54 1.91,-15.32 2.00,-13.10 2.00,-11.38 2.00,-9.66 1.99,-7.96 1.98,-6.27 1.96,-4.63 1.94,-2.99 1.89,-1.49 1.83,0 1.81,0.22 1.78,0.44 1.70,0.64 1.62,0.85 1.50,1.03 1.37,1.21 1.21,1.36 1.04,1.51 0.84,1.61 0.65,1.71 0.43,1.77 0.22,1.82 -0.00,1.82 -0.22,1.82 -0.43,1.77 -0.65,1.71 -0.84,1.61 -1.04,1.51 -1.21,1.36 -1.37,1.21 -1.50,1.03 -1.62,0.85 -1.70,0.64 -1.78,0.43 -1.81,0.21 -1.83,-0.00 -1.83,-0.00 L -1.83,0 Z"></path></g><g transform="translate(118.09070239657558 23.909993291624232) rotate(0 10.432494968718174 1.7387491614531427)" stroke="none"><path fill="#1e1e1e" d="M -0.95,-1.66 Q -0.95,-1.66 0.82,-2.62 2.59,-3.57 4.69,-4.47 6.78,-5.37 9.80,-6.02 12.83,-6.67 14.68,-6.99 16.53,-7.30 18.39,-6.44 20.24,-5.59 20.87,-3.80 21.50,-2.01 20.83,-0.17 20.15,1.66 17.60,3.92 15.04,6.19 13.18,7.35 11.32,8.51 9.58,9.64 7.84,10.77 7.54,10.88 7.25,10.99 6.94,11.01 6.63,11.02 6.33,10.94 6.03,10.85 5.77,10.67 5.51,10.50 5.32,10.24 5.14,9.99 5.04,9.70 4.94,9.40 4.94,9.09 4.95,8.77 5.05,8.48 5.15,8.18 5.34,7.94 5.53,7.69 5.79,7.51 6.05,7.34 6.36,7.26 6.66,7.18 6.97,7.20 7.28,7.22 7.57,7.33 7.86,7.45 8.10,7.66 8.34,7.86 8.50,8.13 8.65,8.40 8.72,8.71 8.78,9.01 8.75,9.32 8.71,9.63 8.58,9.92 8.44,10.20 8.23,10.43 8.01,10.65 7.73,10.80 7.46,10.94 7.15,10.99 6.84,11.04 6.53,10.98 6.22,10.93 5.94,10.78 5.67,10.63 5.46,10.40 5.24,10.17 5.11,9.89 4.99,9.60 4.95,9.29 4.92,8.98 4.99,8.68 5.06,8.37 5.23,8.10 5.39,7.84 5.63,7.64 5.87,7.44 5.87,7.44 5.87,7.44 7.63,6.50 9.39,5.55 10.96,4.48 12.53,3.40 15.10,0.83 17.68,-1.73 17.17,-2.89 16.66,-4.05 15.09,-3.82 13.52,-3.59 10.85,-2.95 8.18,-2.32 6.29,-1.37 4.39,-0.42 2.67,0.62 0.95,1.66 0.73,1.75 0.52,1.84 0.29,1.88 0.06,1.92 -0.16,1.90 -0.39,1.88 -0.61,1.80 -0.83,1.73 -1.02,1.60 -1.22,1.48 -1.38,1.31 -1.54,1.14 -1.65,0.94 -1.77,0.74 -1.83,0.52 -1.89,0.29 -1.90,0.06 -1.91,-0.16 -1.86,-0.39 -1.82,-0.61 -1.71,-0.82 -1.61,-1.03 -1.47,-1.21 -1.32,-1.39 -1.13,-1.53 -0.95,-1.66 -0.95,-1.66 L -0.95,-1.66 Z"></path></g><g transform="translate(158.95130769072148 60.42372568213705) rotate(0 2.608123742179714 -2.1734364518160874)" stroke="none"><path fill="#1e1e1e" d="M -1.17,-2.35 Q -1.17,-2.35 -0.09,-2.89 0.98,-3.42 2.24,-3.55 3.50,-3.67 5.29,-2.92 7.09,-2.16 7.60,-0.66 8.11,0.84 7.64,2.69 7.17,4.55 6.26,5.27 5.36,5.99 4.00,6.19 2.65,6.40 1.05,5.73 -0.55,5.06 -1.34,4.18 -2.13,3.30 -2.53,2.07 -2.92,0.83 -3.40,-0.49 -3.88,-1.82 -4.01,-3.07 -4.14,-4.33 -3.45,-6.34 -2.76,-8.36 -1.61,-9.02 -0.45,-9.68 1.30,-10.41 3.07,-11.14 4.71,-10.96 6.35,-10.77 7.44,-10.07 8.53,-9.38 9.02,-7.75 9.51,-6.12 9.34,-4.66 9.17,-3.19 8.31,-1.93 7.46,-0.67 5.10,0.99 2.75,2.66 2.20,2.77 1.66,2.87 1.10,2.80 0.55,2.72 0.05,2.47 -0.44,2.22 -0.84,1.83 -1.23,1.43 -1.48,0.93 -1.73,0.43 -1.80,-0.11 -1.88,-0.67 -1.77,-1.21 -1.67,-1.76 -1.39,-2.25 -1.12,-2.73 -0.70,-3.11 -0.28,-3.48 0.22,-3.70 0.73,-3.92 1.29,-3.97 1.85,-4.01 2.39,-3.88 2.93,-3.74 3.40,-3.44 3.87,-3.14 4.22,-2.70 4.57,-2.27 4.76,-1.74 4.95,-1.22 4.97,-0.66 4.98,-0.10 4.82,0.42 4.66,0.95 4.33,1.41 4.00,1.86 3.55,2.19 3.10,2.51 2.56,2.68 2.03,2.84 1.47,2.83 0.91,2.81 0.39,2.62 -0.13,2.42 -0.56,2.07 -1.00,1.72 -1.30,1.25 -1.60,0.78 -1.73,0.24 -1.87,-0.29 -1.82,-0.85 -1.78,-1.41 -1.56,-1.92 -1.33,-2.43 -0.96,-2.85 -0.59,-3.26 -0.10,-3.54 0.38,-3.81 0.37,-3.81 0.37,-3.81 1.47,-4.80 2.57,-5.79 3.58,-5.07 4.60,-4.35 3.53,-4.50 2.47,-4.65 2.45,-3.56 2.42,-2.48 2.72,-0.52 3.01,1.43 2.09,1.89 1.17,2.35 0.87,2.45 0.57,2.56 0.26,2.59 -0.05,2.63 -0.36,2.58 -0.67,2.54 -0.97,2.42 -1.26,2.30 -1.52,2.11 -1.78,1.93 -1.98,1.69 -2.19,1.45 -2.33,1.16 -2.47,0.88 -2.54,0.57 -2.61,0.26 -2.61,-0.05 -2.60,-0.36 -2.52,-0.67 -2.44,-0.98 -2.28,-1.25 -2.13,-1.53 -1.92,-1.77 -1.70,-2.00 -1.44,-2.17 -1.17,-2.35 -1.17,-2.35 L -1.17,-2.35 Z"></path></g><g transform="translate(175.4694247245252 54.338103617051274) rotate(0 -1.304061871089516 -4.3468729036326295)" stroke="none"><path fill="#1e1e1e" d="M 0,2.65 Q 0,2.65 -0.99,2.68 -1.99,2.71 -3.95,2.09 -5.90,1.48 -6.56,-0.39 -7.21,-2.28 -7.27,-3.46 -7.34,-4.65 -6.95,-5.78 -6.55,-6.90 -5.76,-8.13 -4.97,-9.36 -4.12,-10.13 -3.26,-10.91 -1.02,-11.10 1.21,-11.29 2.88,-10.04 4.55,-8.78 4.49,-6.72 4.43,-4.66 3.83,-3.69 3.22,-2.72 2.02,-2.00 0.82,-1.29 0.36,0.18 -0.09,1.65 -0.49,1.74 -0.88,1.83 -1.29,1.83 -1.70,1.82 -2.09,1.71 -2.48,1.61 -2.84,1.42 -3.19,1.22 -3.49,0.95 -3.79,0.67 -4.01,0.33 -4.24,0.00 -4.37,-0.38 -4.51,-0.76 -4.55,-1.16 -4.59,-1.57 -4.54,-1.97 -4.48,-2.37 -4.33,-2.75 -4.18,-3.12 -3.94,-3.45 -3.71,-3.78 -3.40,-4.04 -3.09,-4.31 -2.73,-4.49 -2.36,-4.67 -0.22,-3.68 1.91,-2.69 2.02,-2.16 2.12,-1.62 2.06,-1.08 1.99,-0.54 1.75,-0.05 1.51,0.43 1.13,0.81 0.75,1.20 0.26,1.45 -0.21,1.69 -0.75,1.77 -1.29,1.85 -1.83,1.75 -2.36,1.65 -2.84,1.39 -3.32,1.13 -3.68,0.72 -4.05,0.32 -4.27,-0.17 -4.49,-0.67 -4.54,-1.21 -4.59,-1.75 -4.46,-2.28 -4.33,-2.81 -4.04,-3.27 -3.75,-3.73 -3.33,-4.08 -2.91,-4.42 -2.40,-4.61 -1.89,-4.80 -1.35,-4.82 -0.80,-4.84 -0.28,-4.69 0.23,-4.53 0.68,-4.22 1.12,-3.90 1.44,-3.46 1.76,-3.02 1.93,-2.50 2.09,-1.99 2.08,-1.44 2.07,-0.90 1.89,-0.38 1.70,0.12 1.37,0.55 1.03,0.97 0.57,1.27 0.12,1.57 -0.40,1.70 -0.93,1.84 -1.47,1.80 -2.01,1.76 -2.52,1.55 -3.02,1.34 -3.43,0.98 -3.83,0.62 -1.96,1.13 -0.09,1.65 -0.49,1.74 -0.88,1.83 -1.29,1.83 -1.70,1.82 -2.09,1.71 -2.48,1.61 -2.83,1.42 -3.19,1.22 -3.49,0.95 -3.79,0.67 -4.01,0.33 -4.24,0.00 -4.37,-0.38 -4.51,-0.76 -4.55,-1.16 -4.59,-1.57 -4.54,-1.97 -4.48,-2.37 -4.33,-2.75 -4.18,-3.12 -3.94,-3.45 -3.71,-3.78 -3.40,-4.04 -3.09,-4.31 -2.73,-4.49 -2.36,-4.67 -3.20,-5.36 -4.03,-6.05 -2.40,-7.14 -0.77,-8.22 -0.23,-7.10 0.31,-5.99 -0.84,-4.35 -1.99,-2.71 -0.99,-2.68 0,-2.65 0.31,-2.61 0.63,-2.57 0.93,-2.46 1.23,-2.35 1.49,-2.16 1.76,-1.98 1.97,-1.74 2.18,-1.50 2.33,-1.22 2.48,-0.94 2.55,-0.63 2.63,-0.31 2.63,0.00 2.63,0.32 2.55,0.63 2.48,0.94 2.33,1.22 2.18,1.50 1.97,1.74 1.76,1.98 1.49,2.16 1.23,2.35 0.93,2.46 0.63,2.57 0.31,2.61 -0.00,2.65 -0.00,2.65 L 0,2.65 Z"></path></g><g transform="translate(126.78444820384084 58.68497652068527) rotate(0 14.344680581987404 0.4346872903629446)" stroke="none"><path fill="#1e1e1e" d="M 0,-2.24 Q 0,-2.24 1.49,-2.25 2.99,-2.26 4.88,-2.20 6.77,-2.14 8.57,-2.10 10.37,-2.07 12.14,-2.06 13.90,-2.04 15.40,-2.07 16.90,-2.11 18.29,-2.15 19.68,-2.19 21.02,-2.22 22.36,-2.26 25.11,-1.96 27.87,-1.65 28.24,-1.54 28.61,-1.42 28.92,-1.20 29.23,-0.97 29.46,-0.66 29.69,-0.34 29.80,0.02 29.91,0.39 29.90,0.77 29.89,1.16 29.76,1.52 29.62,1.89 29.38,2.19 29.14,2.49 28.81,2.70 28.48,2.91 28.11,3.00 27.73,3.09 27.35,3.06 26.96,3.03 26.61,2.87 26.25,2.72 25.96,2.46 25.68,2.20 25.49,1.87 25.30,1.53 25.22,1.15 25.15,0.77 25.20,0.39 25.26,0.00 25.43,-0.33 25.60,-0.68 25.87,-0.95 26.15,-1.23 26.50,-1.40 26.84,-1.57 27.23,-1.62 27.61,-1.67 27.99,-1.60 28.37,-1.53 28.71,-1.34 29.04,-1.14 29.30,-0.86 29.56,-0.57 29.71,-0.21 29.86,0.13 29.89,0.52 29.93,0.90 29.83,1.28 29.74,1.66 29.53,1.98 29.32,2.31 29.02,2.55 28.72,2.79 28.35,2.92 27.99,3.06 27.60,3.07 27.22,3.08 27.22,3.08 27.22,3.08 24.79,2.67 22.35,2.26 21.02,2.22 19.68,2.19 18.29,2.15 16.90,2.11 15.40,2.07 13.90,2.04 12.14,2.06 10.37,2.07 8.57,2.10 6.77,2.14 4.88,2.20 2.99,2.26 1.49,2.25 0,2.24 -0.26,2.20 -0.53,2.17 -0.78,2.08 -1.04,1.98 -1.26,1.83 -1.48,1.67 -1.66,1.47 -1.84,1.27 -1.97,1.03 -2.09,0.79 -2.16,0.53 -2.22,0.27 -2.22,-0.00 -2.22,-0.27 -2.16,-0.53 -2.09,-0.79 -1.97,-1.03 -1.84,-1.27 -1.66,-1.47 -1.48,-1.67 -1.26,-1.83 -1.04,-1.98 -0.78,-2.08 -0.53,-2.17 -0.26,-2.20 0.00,-2.24 0.00,-2.24 L 0,-2.24 Z"></path></g><g transform="translate(130.26194652674621 49.9912307134191) rotate(0 11.736556839807918 0)" stroke="none"><path fill="#1e1e1e" d="M 0,-2.30 Q 0,-2.30 1.74,-2.26 3.49,-2.22 5.24,-2.19 6.98,-2.17 8.72,-2.15 10.46,-2.12 12.20,-2.11 13.94,-2.09 15.43,-2.12 16.92,-2.15 18.30,-2.18 19.69,-2.22 21.24,-2.27 22.78,-2.33 23.16,-2.27 23.53,-2.21 23.86,-2.03 24.20,-1.85 24.46,-1.58 24.72,-1.30 24.87,-0.96 25.03,-0.62 25.07,-0.24 25.12,0.12 25.03,0.49 24.95,0.86 24.76,1.18 24.56,1.51 24.28,1.75 23.99,1.99 23.64,2.13 23.29,2.27 22.91,2.29 22.53,2.31 22.17,2.21 21.80,2.11 21.49,1.90 21.18,1.69 20.95,1.39 20.72,1.09 20.60,0.73 20.48,0.37 20.48,-0.00 20.48,-0.37 20.60,-0.73 20.72,-1.09 20.95,-1.39 21.18,-1.69 21.49,-1.90 21.81,-2.11 22.17,-2.21 22.53,-2.31 22.91,-2.29 23.29,-2.27 23.64,-2.13 23.99,-1.99 24.28,-1.75 24.56,-1.51 24.76,-1.18 24.95,-0.86 25.03,-0.49 25.12,-0.12 25.07,0.24 25.03,0.62 24.87,0.96 24.72,1.31 24.46,1.58 24.20,1.85 23.86,2.03 23.53,2.21 23.16,2.27 22.78,2.33 22.78,2.33 22.78,2.33 21.24,2.27 19.69,2.22 18.30,2.18 16.92,2.15 15.43,2.12 13.94,2.09 12.20,2.11 10.46,2.12 8.72,2.15 6.98,2.17 5.24,2.19 3.49,2.22 1.74,2.26 0,2.30 -0.27,2.26 -0.55,2.23 -0.81,2.13 -1.07,2.03 -1.29,1.88 -1.52,1.72 -1.71,1.51 -1.89,1.30 -2.02,1.06 -2.15,0.81 -2.21,0.54 -2.28,0.27 -2.28,-0.00 -2.28,-0.27 -2.21,-0.54 -2.15,-0.81 -2.02,-1.06 -1.89,-1.30 -1.71,-1.51 -1.52,-1.72 -1.29,-1.88 -1.07,-2.03 -0.81,-2.13 -0.55,-2.23 -0.27,-2.26 0.00,-2.30 0.00,-2.30 L 0,-2.30 Z"></path></g><g transform="translate(135.4781940111052 39.55873574470115) rotate(0 18.256866195256862 1.7387491614531427)" stroke="none"><path fill="#1e1e1e" d="M 0,-1.93 Q 0,-1.93 1.99,-1.88 3.99,-1.83 5.84,-1.82 7.69,-1.82 9.73,-1.77 11.76,-1.73 13.63,-1.73 15.49,-1.74 17.29,-1.75 19.08,-1.77 21.67,-1.45 24.27,-1.14 26.93,-0.47 29.59,0.19 31.14,0.37 32.69,0.55 34.50,1.01 36.31,1.47 36.58,1.60 36.85,1.74 37.06,1.95 37.28,2.16 37.41,2.43 37.54,2.70 37.58,3.00 37.63,3.29 37.57,3.59 37.51,3.88 37.37,4.15 37.22,4.41 36.99,4.61 36.77,4.81 36.50,4.93 36.22,5.05 35.92,5.07 35.62,5.10 35.33,5.02 35.04,4.95 34.79,4.79 34.53,4.63 34.34,4.40 34.16,4.16 34.05,3.88 33.95,3.60 33.94,3.30 33.93,3.00 34.02,2.71 34.11,2.42 34.28,2.18 34.46,1.94 34.70,1.76 34.94,1.59 35.23,1.50 35.52,1.41 35.82,1.42 36.12,1.42 36.40,1.53 36.68,1.63 36.92,1.82 37.15,2.01 37.31,2.26 37.47,2.51 37.55,2.80 37.62,3.09 37.60,3.39 37.57,3.69 37.45,3.97 37.33,4.24 37.13,4.47 36.93,4.69 36.67,4.84 36.41,4.99 36.12,5.04 35.82,5.10 35.52,5.06 35.23,5.02 35.23,5.02 35.23,5.02 33.69,4.46 32.15,3.90 30.51,3.56 28.88,3.22 26.41,2.68 23.94,2.14 21.51,1.95 19.08,1.77 17.29,1.75 15.49,1.74 13.63,1.73 11.76,1.73 9.73,1.77 7.69,1.82 5.84,1.82 3.99,1.83 1.99,1.88 0,1.93 -0.23,1.90 -0.46,1.87 -0.67,1.79 -0.89,1.70 -1.08,1.57 -1.28,1.44 -1.43,1.27 -1.58,1.09 -1.69,0.89 -1.80,0.68 -1.86,0.45 -1.91,0.23 -1.91,-0.00 -1.91,-0.23 -1.86,-0.45 -1.80,-0.68 -1.69,-0.89 -1.58,-1.09 -1.43,-1.27 -1.28,-1.44 -1.08,-1.57 -0.89,-1.70 -0.67,-1.79 -0.46,-1.87 -0.23,-1.90 0.00,-1.93 0.00,-1.93 L 0,-1.93 Z"></path></g><g transform="translate(166.77567891725994 42.16685948688155) rotate(0 -8.693745807265032 0)" stroke="none"><path fill="#1e1e1e" d="M 0,2.10 Q 0,2.10 -1.74,2.08 -3.49,2.07 -5.49,2.00 -7.48,1.94 -9.58,1.86 -11.67,1.78 -14.01,1.87 -16.35,1.96 -16.67,1.91 -16.98,1.86 -17.26,1.71 -17.54,1.56 -17.76,1.33 -17.98,1.10 -18.11,0.81 -18.24,0.52 -18.28,0.20 -18.31,-0.10 -18.24,-0.41 -18.18,-0.72 -18.01,-0.99 -17.85,-1.27 -17.61,-1.47 -17.36,-1.68 -17.07,-1.80 -16.77,-1.91 -16.46,-1.93 -16.14,-1.95 -15.83,-1.86 -15.53,-1.78 -15.26,-1.60 -15.00,-1.42 -14.81,-1.17 -14.62,-0.91 -14.51,-0.61 -14.41,-0.31 -14.41,0.00 -14.41,0.31 -14.51,0.61 -14.62,0.92 -14.81,1.17 -15.00,1.42 -15.26,1.60 -15.53,1.78 -15.83,1.86 -16.14,1.95 -16.46,1.93 -16.77,1.91 -17.07,1.80 -17.36,1.68 -17.61,1.47 -17.85,1.27 -18.01,0.99 -18.18,0.72 -18.24,0.41 -18.31,0.10 -18.28,-0.21 -18.24,-0.52 -18.11,-0.81 -17.98,-1.10 -17.76,-1.33 -17.54,-1.56 -17.26,-1.71 -16.98,-1.86 -16.66,-1.91 -16.35,-1.96 -16.35,-1.96 -16.35,-1.96 -14.01,-1.87 -11.67,-1.78 -9.58,-1.86 -7.48,-1.94 -5.49,-2.00 -3.49,-2.07 -1.74,-2.08 0,-2.10 0.25,-2.07 0.50,-2.04 0.74,-1.95 0.97,-1.86 1.18,-1.71 1.39,-1.57 1.56,-1.38 1.73,-1.19 1.84,-0.97 1.96,-0.74 2.02,-0.49 2.08,-0.25 2.08,0.00 2.08,0.25 2.02,0.49 1.96,0.74 1.84,0.97 1.73,1.19 1.56,1.38 1.39,1.57 1.18,1.71 0.97,1.86 0.74,1.95 0.50,2.04 0.25,2.07 -0.00,2.10 -0.00,2.10 L 0,2.10 Z"></path></g><g transform="translate(164.16755517508045 49.9912307134191) rotate(0 -6.085622065085545 0)" stroke="none"><path fill="#1e1e1e" d="M 0,2.09 Q 0,2.09 -2.49,1.99 -4.99,1.88 -7.93,1.97 -10.87,2.06 -11.20,2.00 -11.53,1.95 -11.82,1.79 -12.12,1.64 -12.35,1.39 -12.58,1.15 -12.72,0.85 -12.86,0.55 -12.89,0.21 -12.93,-0.11 -12.86,-0.43 -12.78,-0.76 -12.61,-1.04 -12.44,-1.33 -12.19,-1.54 -11.93,-1.76 -11.62,-1.88 -11.31,-2.01 -10.98,-2.03 -10.65,-2.04 -10.33,-1.95 -10.01,-1.87 -9.73,-1.68 -9.45,-1.49 -9.25,-1.23 -9.05,-0.96 -8.94,-0.64 -8.84,-0.33 -8.84,0.00 -8.84,0.33 -8.94,0.64 -9.05,0.96 -9.25,1.23 -9.45,1.49 -9.73,1.68 -10.01,1.87 -10.33,1.95 -10.65,2.04 -10.98,2.03 -11.31,2.01 -11.62,1.88 -11.93,1.76 -12.19,1.54 -12.44,1.33 -12.61,1.04 -12.79,0.76 -12.86,0.43 -12.93,0.11 -12.89,-0.22 -12.86,-0.55 -12.72,-0.85 -12.58,-1.15 -12.35,-1.39 -12.12,-1.64 -11.82,-1.79 -11.53,-1.95 -11.20,-2.00 -10.87,-2.06 -10.87,-2.06 -10.87,-2.06 -7.93,-1.97 -4.99,-1.88 -2.49,-1.99 0,-2.09 0.25,-2.06 0.50,-2.03 0.73,-1.94 0.97,-1.85 1.18,-1.71 1.38,-1.56 1.55,-1.37 1.72,-1.18 1.84,-0.96 1.95,-0.74 2.01,-0.49 2.07,-0.25 2.07,0.00 2.07,0.25 2.01,0.49 1.95,0.74 1.84,0.96 1.72,1.18 1.55,1.37 1.38,1.56 1.18,1.71 0.97,1.85 0.73,1.94 0.50,2.03 0.25,2.06 -0.00,2.09 -0.00,2.09 L 0,2.09 Z"></path></g><g transform="translate(170.25317724016622 50.8606052941459) rotate(0 1.3040618710897434 -0.869374580726344)" stroke="none"><path fill="#1e1e1e" d="M 2.12,-0.66 Q 2.12,-0.66 2.15,-0.13 2.18,0.40 1.96,0.88 1.74,1.36 1.32,1.69 0.91,2.02 0.38,2.12 -0.13,2.21 -0.64,2.05 -1.14,1.90 -1.52,1.52 -1.90,1.14 -2.05,0.64 -2.21,0.13 -2.12,-0.38 -2.02,-0.91 -1.69,-1.32 -1.36,-1.74 -0.88,-1.96 -0.39,-2.18 0.13,-2.15 0.66,-2.11 1.11,-1.84 1.57,-1.56 1.84,-1.11 L 2.12,-0.66 Z"></path></g><g transform="translate(172.02158240358767 51.875420028184635) rotate(0 -1.9738522492414177 -3.4542414361721967)" stroke="none"><path fill="#1e1e1e" d="M -1.16,2.32 Q -1.16,2.32 -2.04,1.92 -2.91,1.52 -3.95,0.72 -4.98,-0.06 -5.59,-1.27 -6.21,-2.47 -5.05,-6.00 -3.90,-9.52 -3.44,-9.65 -2.97,-9.79 -2.49,-9.77 -2.01,-9.75 -1.56,-9.58 -1.11,-9.41 -0.74,-9.10 -0.37,-8.80 -0.11,-8.39 0.13,-7.98 0.24,-7.51 0.35,-7.04 0.31,-6.57 0.27,-6.09 0.07,-5.65 -0.11,-5.21 -0.44,-4.85 -0.76,-4.50 -1.19,-4.26 -1.61,-4.03 -2.08,-3.95 -2.56,-3.86 -3.03,-3.93 -3.51,-4.00 -3.94,-4.22 -4.37,-4.44 -4.70,-4.78 -5.04,-5.13 -5.25,-5.56 -5.46,-5.99 -5.52,-6.47 -5.58,-6.95 -5.48,-7.42 -5.39,-7.89 -5.14,-8.31 -4.90,-8.72 -4.54,-9.04 -4.18,-9.36 -3.73,-9.55 -3.29,-9.73 -2.81,-9.76 -2.33,-9.80 -1.86,-9.68 -1.40,-9.56 -1.00,-9.29 -0.59,-9.03 -0.30,-8.65 -0.00,-8.27 0.15,-7.82 0.31,-7.36 0.32,-6.88 0.33,-6.40 0.18,-5.94 0.04,-5.48 -0.24,-5.10 -0.52,-4.71 -0.92,-4.43 -1.31,-4.15 -1.31,-4.15 -1.31,-4.16 -0.90,-3.69 -0.48,-3.22 0.33,-2.77 1.16,-2.32 1.42,-2.15 1.68,-1.97 1.89,-1.74 2.10,-1.51 2.26,-1.24 2.41,-0.96 2.49,-0.66 2.57,-0.36 2.58,-0.05 2.58,0.26 2.51,0.56 2.44,0.87 2.30,1.15 2.16,1.43 1.96,1.67 1.76,1.91 1.50,2.09 1.25,2.27 0.96,2.39 0.67,2.51 0.36,2.55 0.05,2.59 -0.26,2.56 -0.57,2.53 -0.86,2.43 -1.16,2.32 -1.16,2.32 L -1.16,2.32 Z"></path></g><g transform="translate(10 191.08479324202835) rotate(0 95.186709773865 -12.69156130318197)" stroke="none"><path fill="#1e1e1e" d="M -1.00,-1.25 Q -1.00,-1.25 0.17,-2.28 1.34,-3.31 5.20,-5.22 9.05,-7.14 12.88,-8.65 16.71,-10.17 21.05,-11.54 25.38,-12.90 32.80,-15.17 40.23,-17.44 46.57,-19.14 52.91,-20.83 58.52,-22.27 64.13,-23.72 69.50,-24.58 74.86,-25.45 80.09,-25.81 85.33,-26.18 93.40,-26.33 101.47,-26.49 108.08,-26.31 114.68,-26.12 123.83,-25.56 132.97,-24.99 139.80,-24.26 146.62,-23.53 152.45,-22.74 158.27,-21.94 164.65,-20.87 171.03,-19.80 175.94,-18.85 180.85,-17.91 183.39,-17.51 185.93,-17.12 188.51,-16.40 191.10,-15.69 191.29,-15.54 191.48,-15.39 191.61,-15.18 191.74,-14.98 191.80,-14.75 191.86,-14.51 191.84,-14.27 191.82,-14.03 191.73,-13.80 191.64,-13.58 191.47,-13.40 191.31,-13.22 191.10,-13.10 190.89,-12.98 190.66,-12.93 190.42,-12.88 190.18,-12.91 189.94,-12.94 189.72,-13.05 189.50,-13.16 189.33,-13.33 189.16,-13.50 189.05,-13.71 188.94,-13.93 188.91,-14.17 188.87,-14.41 188.92,-14.65 188.96,-14.89 189.08,-15.10 189.20,-15.31 189.37,-15.47 189.55,-15.64 189.78,-15.73 190.00,-15.83 190.24,-15.85 190.48,-15.87 190.72,-15.81 190.95,-15.76 191.16,-15.63 191.36,-15.50 191.51,-15.31 191.67,-15.12 191.75,-14.90 191.84,-14.67 191.85,-14.43 191.85,-14.19 191.78,-13.95 191.71,-13.72 191.57,-13.52 191.43,-13.33 191.24,-13.18 191.04,-13.04 190.81,-12.97 190.58,-12.90 190.34,-12.90 190.10,-12.91 189.87,-12.99 189.64,-13.07 189.64,-13.07 189.64,-13.07 187.58,-13.79 185.53,-14.52 182.94,-14.92 180.35,-15.32 175.47,-16.26 170.60,-17.20 164.25,-18.26 157.91,-19.32 152.13,-20.11 146.34,-20.90 139.57,-21.63 132.81,-22.35 123.71,-22.91 114.61,-23.46 108.07,-23.64 101.52,-23.81 93.52,-23.65 85.52,-23.49 80.41,-23.13 75.30,-22.76 70.06,-21.91 64.82,-21.05 59.23,-19.59 53.64,-18.12 47.36,-16.41 41.08,-14.70 33.68,-12.39 26.29,-10.09 22.08,-8.70 17.87,-7.31 14.20,-5.77 10.52,-4.24 7.02,-2.41 3.51,-0.58 2.25,0.33 1.00,1.25 0.83,1.35 0.67,1.45 0.48,1.51 0.30,1.57 0.11,1.58 -0.08,1.60 -0.27,1.56 -0.46,1.53 -0.63,1.45 -0.81,1.38 -0.96,1.26 -1.12,1.14 -1.24,0.99 -1.36,0.84 -1.44,0.66 -1.52,0.49 -1.56,0.30 -1.59,0.11 -1.58,-0.08 -1.57,-0.27 -1.52,-0.45 -1.46,-0.64 -1.37,-0.80 -1.27,-0.97 -1.13,-1.11 -1.00,-1.25 -1.00,-1.25 L -1.00,-1.25 Z"></path></g><g transform="translate(301.69909205270324 53.05012665830145) rotate(0 10.160920790856835 9.677067419863306)" stroke="none"><path fill="#9775fa" d="M -5.23,0 Q -5.23,0 -5.08,-3.16 -4.93,-6.32 -2.65,-9.73 -0.37,-13.15 2.97,-14.70 6.32,-16.26 8.56,-16.80 10.80,-17.34 13.12,-17.24 15.44,-17.13 17.86,-15.79 20.28,-14.44 22.19,-12.09 24.11,-9.75 25.13,-5.46 26.16,-1.18 25.18,3.28 24.20,7.75 22.50,11.20 20.80,14.65 19.77,17.35 18.73,20.05 18.76,22.20 18.79,24.35 18.85,26.54 18.92,28.73 18.94,30.33 18.96,31.93 18.79,32.95 18.63,33.97 18.14,34.89 17.66,35.80 16.91,36.51 16.16,37.22 15.22,37.65 14.28,38.08 13.25,38.20 12.22,38.31 11.22,38.08 10.21,37.86 9.32,37.33 8.44,36.79 7.77,36.01 7.10,35.22 6.72,34.26 6.34,33.30 6.28,32.27 6.23,31.23 6.50,30.24 6.78,29.24 7.36,28.39 7.94,27.53 8.76,26.91 9.59,26.28 10.57,25.95 11.55,25.63 12.58,25.63 13.61,25.63 14.59,25.96 15.57,26.29 16.39,26.91 17.22,27.54 17.80,28.40 18.37,29.25 18.65,30.25 18.93,31.24 18.87,32.28 18.81,33.31 18.43,34.27 18.05,35.23 17.38,36.01 16.71,36.80 15.82,37.33 14.93,37.87 13.92,38.09 12.91,38.31 11.89,38.19 10.86,38.08 9.92,37.65 8.99,37.21 8.24,36.50 7.49,35.79 7.00,34.88 6.52,33.96 6.35,32.94 6.19,31.92 6.19,31.92 6.19,31.92 6.21,30.31 6.24,28.70 6.37,25.73 6.50,22.76 7.01,19.78 7.51,16.81 8.95,13.56 10.39,10.31 11.47,7.09 12.55,3.87 13.41,0.33 14.28,-3.21 12.07,-4.78 9.87,-6.35 7.40,-5.58 4.93,-4.80 5.08,-2.40 5.23,0 5.16,0.62 5.08,1.25 4.86,1.84 4.63,2.43 4.27,2.95 3.92,3.47 3.44,3.89 2.97,4.31 2.41,4.60 1.85,4.89 1.24,5.04 0.63,5.19 -0.00,5.19 -0.63,5.19 -1.24,5.04 -1.85,4.89 -2.41,4.60 -2.97,4.31 -3.44,3.89 -3.92,3.47 -4.27,2.95 -4.63,2.43 -4.86,1.84 -5.08,1.25 -5.16,0.62 -5.23,-0.00 -5.23,-0.00 L -5.23,0 Z"></path></g><g transform="translate(315.24698644051296 103.37087724159119) rotate(0 0.00005000000010113581 0.00005000000010113581)" stroke="none"><path fill="#9775fa" d="M 3.14,-3.14 Q 3.14,-3.14 3.55,-2.55 3.97,-1.97 4.18,-1.28 4.40,-0.59 4.38,0.11 4.36,0.83 4.11,1.51 3.86,2.18 3.41,2.74 2.96,3.30 2.36,3.69 1.75,4.08 1.05,4.25 0.36,4.42 -0.35,4.36 -1.07,4.31 -1.73,4.02 -2.39,3.74 -2.92,3.26 -3.46,2.78 -3.81,2.15 -4.16,1.53 -4.30,0.82 -4.43,0.11 -4.34,-0.59 -4.24,-1.30 -3.92,-1.94 -3.60,-2.59 -3.09,-3.09 -2.59,-3.60 -1.94,-3.92 -1.30,-4.24 -0.59,-4.34 0.12,-4.43 0.82,-4.30 1.53,-4.16 2.15,-3.81 2.78,-3.46 3.26,-2.92 3.74,-2.39 4.02,-1.73 4.31,-1.07 4.36,-0.35 4.42,0.36 4.25,1.05 4.07,1.75 3.69,2.36 3.30,2.96 2.74,3.41 2.18,3.86 1.51,4.11 0.83,4.36 0.11,4.38 -0.60,4.40 -1.28,4.18 -1.97,3.97 -2.55,3.55 -3.14,3.13 -3.14,3.14 -3.14,3.14 -3.47,2.71 -3.80,2.29 -4.02,1.80 -4.24,1.32 -4.33,0.79 -4.43,0.26 -4.40,-0.26 -4.36,-0.80 -4.20,-1.31 -4.04,-1.82 -3.77,-2.28 -3.49,-2.73 -3.11,-3.11 -2.73,-3.49 -2.28,-3.77 -1.82,-4.05 -1.31,-4.20 -0.80,-4.36 -0.26,-4.40 0.26,-4.43 0.79,-4.33 1.32,-4.24 1.80,-4.02 2.29,-3.80 2.71,-3.47 3.14,-3.14 3.14,-3.14 L 3.14,-3.14 Z"></path></g><g transform="translate(241.7012740495502 78.21050194994677) rotate(0 0.00005000000010113581 0.00005000000010113581)" stroke="none"><path fill="#9775fa" d="M 3.14,-3.14 Q 3.14,-3.14 3.55,-2.55 3.97,-1.97 4.18,-1.28 4.40,-0.59 4.38,0.11 4.36,0.83 4.11,1.51 3.86,2.18 3.41,2.74 2.96,3.30 2.36,3.69 1.75,4.08 1.05,4.25 0.36,4.42 -0.35,4.36 -1.07,4.31 -1.73,4.02 -2.39,3.74 -2.92,3.26 -3.46,2.78 -3.81,2.15 -4.16,1.53 -4.30,0.82 -4.43,0.11 -4.34,-0.59 -4.24,-1.30 -3.92,-1.94 -3.60,-2.59 -3.09,-3.09 -2.59,-3.60 -1.94,-3.92 -1.30,-4.24 -0.59,-4.34 0.12,-4.43 0.82,-4.30 1.53,-4.16 2.15,-3.81 2.78,-3.46 3.26,-2.92 3.74,-2.39 4.02,-1.73 4.31,-1.07 4.36,-0.35 4.42,0.36 4.25,1.05 4.07,1.75 3.69,2.36 3.30,2.96 2.74,3.41 2.18,3.86 1.51,4.11 0.83,4.36 0.11,4.38 -0.60,4.40 -1.28,4.18 -1.97,3.97 -2.55,3.55 -3.14,3.13 -3.14,3.14 -3.14,3.14 -3.47,2.71 -3.80,2.29 -4.02,1.80 -4.24,1.32 -4.33,0.79 -4.43,0.26 -4.40,-0.26 -4.36,-0.80 -4.20,-1.31 -4.04,-1.82 -3.77,-2.28 -3.49,-2.73 -3.11,-3.11 -2.73,-3.49 -2.28,-3.77 -1.82,-4.05 -1.31,-4.20 -0.80,-4.36 -0.26,-4.40 0.26,-4.43 0.79,-4.33 1.32,-4.24 1.80,-4.02 2.29,-3.80 2.71,-3.47 3.14,-3.14 3.14,-3.14 L 3.14,-3.14 Z"></path></g><g transform="translate(256.21687517934606 78.21050194994677) rotate(0 0.00005000000010113581 0.00005000000010113581)" stroke="none"><path fill="#9775fa" d="M 3.14,-3.14 Q 3.14,-3.14 3.55,-2.55 3.97,-1.97 4.18,-1.28 4.40,-0.59 4.38,0.11 4.36,0.83 4.11,1.51 3.86,2.18 3.41,2.74 2.96,3.30 2.36,3.69 1.75,4.08 1.05,4.25 0.36,4.42 -0.35,4.36 -1.07,4.31 -1.73,4.02 -2.39,3.74 -2.92,3.26 -3.46,2.78 -3.81,2.15 -4.16,1.53 -4.30,0.82 -4.43,0.11 -4.34,-0.59 -4.24,-1.30 -3.92,-1.94 -3.60,-2.59 -3.09,-3.09 -2.59,-3.60 -1.94,-3.92 -1.30,-4.24 -0.59,-4.34 0.12,-4.43 0.82,-4.30 1.53,-4.16 2.15,-3.81 2.78,-3.46 3.26,-2.92 3.74,-2.39 4.02,-1.73 4.31,-1.07 4.36,-0.35 4.42,0.36 4.25,1.05 4.07,1.75 3.69,2.36 3.30,2.96 2.74,3.41 2.18,3.86 1.51,4.11 0.83,4.36 0.11,4.38 -0.60,4.40 -1.28,4.18 -1.97,3.97 -2.55,3.55 -3.14,3.13 -3.14,3.14 -3.14,3.14 -3.47,2.71 -3.80,2.29 -4.02,1.80 -4.24,1.32 -4.33,0.79 -4.43,0.26 -4.40,-0.26 -4.36,-0.80 -4.20,-1.31 -4.04,-1.82 -3.77,-2.28 -3.49,-2.73 -3.11,-3.11 -2.73,-3.49 -2.28,-3.77 -1.82,-4.05 -1.31,-4.20 -0.80,-4.36 -0.26,-4.40 0.26,-4.43 0.79,-4.33 1.32,-4.24 1.80,-4.02 2.29,-3.80 2.71,-3.47 3.14,-3.14 3.14,-3.14 L 3.14,-3.14 Z"></path></g><g transform="translate(272.6678897931133 78.21050194994677) rotate(0 0.00005000000010113581 0.00005000000010113581)" stroke="none"><path fill="#9775fa" d="M 3.14,-3.14 Q 3.14,-3.14 3.55,-2.55 3.97,-1.97 4.18,-1.28 4.40,-0.59 4.38,0.11 4.36,0.83 4.11,1.51 3.86,2.18 3.41,2.74 2.96,3.30 2.36,3.69 1.75,4.08 1.05,4.25 0.36,4.42 -0.35,4.36 -1.07,4.31 -1.73,4.02 -2.39,3.74 -2.92,3.26 -3.46,2.78 -3.81,2.15 -4.16,1.53 -4.30,0.82 -4.43,0.11 -4.34,-0.59 -4.24,-1.30 -3.92,-1.94 -3.60,-2.59 -3.09,-3.09 -2.59,-3.60 -1.94,-3.92 -1.30,-4.24 -0.59,-4.34 0.12,-4.43 0.82,-4.30 1.53,-4.16 2.15,-3.81 2.78,-3.46 3.26,-2.92 3.74,-2.39 4.02,-1.73 4.31,-1.07 4.36,-0.35 4.42,0.36 4.25,1.05 4.07,1.75 3.69,2.36 3.30,2.96 2.74,3.41 2.18,3.86 1.51,4.11 0.83,4.36 0.11,4.38 -0.60,4.40 -1.28,4.18 -1.97,3.97 -2.55,3.55 -3.14,3.13 -3.14,3.14 -3.14,3.14 -3.47,2.71 -3.80,2.29 -4.02,1.80 -4.24,1.32 -4.33,0.79 -4.43,0.26 -4.40,-0.26 -4.36,-0.80 -4.20,-1.31 -4.04,-1.82 -3.77,-2.28 -3.49,-2.73 -3.11,-3.11 -2.73,-3.49 -2.28,-3.77 -1.82,-4.05 -1.31,-4.20 -0.80,-4.36 -0.26,-4.40 0.26,-4.43 0.79,-4.33 1.32,-4.24 1.80,-4.02 2.29,-3.80 2.71,-3.47 3.14,-3.14 3.14,-3.14 L 3.14,-3.14 Z"></path></g></svg>